<svg width="45" height="45" fill="none" xmlns="http://www.w3.org/2000/svg"><path fill="#10215B" d="M0 0h45v45H0z"/><path d="M34.03 9.758H11.97A3.974 3.974 0 008 13.728v16.545c0 2.189 1.78 3.97 3.97 3.97h22.06c2.19 0 3.97-1.782 3.97-3.97V13.727c0-2.189-1.78-3.97-3.97-3.97zm1.546 20.515c0 .852-.693 1.546-1.546 1.546H11.97a1.548 1.548 0 01-1.546-1.546V13.727c0-.852.693-1.546 1.545-1.546H34.03c.853 0 1.546.694 1.546 1.546v16.546z" fill="#FDFFFF"/><path d="M37.78 13.032a1.212 1.212 0 00-1.687-.298L23 21.9 9.907 12.735a1.212 1.212 0 00-1.39 1.986l13.788 9.652a1.21 1.21 0 001.39 0l13.788-9.652c.548-.384.682-1.14.298-1.688z" fill="#FDFFFF"/></svg>