<svg width="45" height="45" fill="none" xmlns="http://www.w3.org/2000/svg"><path fill="#10215B" d="M0 0h45v45H0z"/><g clip-path="url(#clip0_250_434)"><path d="M35.1 35.434l-1.99 1.988c-.354.354-1.395.577-1.426.577a23.49 23.49 0 01-16.81-6.873 23.49 23.49 0 01-6.872-16.864c0-.004.228-1.014.583-1.366l1.988-1.99c.73-.729 2.127-1.059 3.105-.733l.42.141c.978.326 2.001 1.406 2.272 2.4l1.002 3.676c.271.996-.094 2.413-.823 3.142L15.22 20.86a14.102 14.102 0 009.922 9.926l1.33-1.33c.729-.728 2.15-1.093 3.145-.822l3.675 1.004c.993.269 2.073 1.29 2.4 2.27l.14.42c.326.98-.004 2.376-.733 3.105zM24.874 23h1.875A3.75 3.75 0 0023 19.25v1.875c1.034 0 1.875.842 1.875 1.875zm7.5 0A9.374 9.374 0 0023 13.625V15.5c4.136 0 7.5 3.365 7.5 7.5h1.875zM23 8v1.875c7.236 0 13.125 5.888 13.125 13.125H38c0-8.284-6.716-15-15-15z" fill="#FDFFFF"/></g><defs><clipPath id="clip0_250_434"><path fill="#fff" transform="translate(8 8)" d="M0 0h30v30H0z"/></clipPath></defs></svg>