<svg width="40" height="39" fill="none" xmlns="http://www.w3.org/2000/svg"><g clip-path="url(#clip0_237_1287)"><path d="M26.286 39H13.714v-3.441h12.572V39zm0-3.441H13.714V30.97h12.572v4.588z" stroke="#10215B"/><path d="M20 32.691c6.943 0 12.571-5.649 12.571-12.618 0-6.968-5.628-12.617-12.571-12.617S7.429 13.105 7.429 20.073c0 6.969 5.628 12.618 12.571 12.618z" fill="#EAEAEA" stroke="#10215B"/><path d="M19.493 27.842V13.243h.932v14.6h-.932zm3.137-10.219a1.791 1.791 0 00-.83-1.346c-.485-.32-1.08-.479-1.784-.479-.515 0-.966.084-1.352.251a2.16 2.16 0 00-.898.69 1.658 1.658 0 00-.318.998c0 .312.074.58.221.804.152.22.345.405.58.553.235.145.481.265.739.36.257.09.494.165.71.222l1.182.32c.303.08.64.19 1.011.33.375.14.733.333 1.074.576.345.24.629.548.852.924.224.376.335.838.335 1.386 0 .63-.164 1.201-.494 1.71-.326.51-.803.915-1.431 1.215-.626.3-1.385.45-2.28.45-.832 0-1.554-.134-2.164-.404-.606-.27-1.083-.647-1.432-1.13a3.228 3.228 0 01-.585-1.682h1.455c.038.441.185.806.443 1.095a2.4 2.4 0 00.988.639c.402.137.834.205 1.296.205a3.8 3.8 0 001.449-.262c.428-.179.767-.426 1.017-.741.25-.32.375-.692.375-1.118 0-.388-.108-.704-.324-.947-.216-.243-.5-.44-.852-.593a8.916 8.916 0 00-1.142-.399l-1.432-.41c-.91-.263-1.629-.637-2.16-1.124-.53-.487-.795-1.123-.795-1.91 0-.654.177-1.225.529-1.711.356-.49.833-.87 1.432-1.14.602-.275 1.274-.411 2.017-.411.75 0 1.416.134 2 .404.583.267 1.045.631 1.386 1.095.345.464.526.99.545 1.58H22.63z" fill="#10215B"/><path d="M35.429 20.073H40M30.453 8.77l2.286-2.293M20 4.588V0M7.261 6.477L9.547 8.77M0 20.073h4.571" stroke="#10215B"/></g><defs><clipPath id="clip0_237_1287"><path fill="#fff" d="M0 0h40v39H0z"/></clipPath></defs></svg>