<svg width="40" height="34" fill="none" xmlns="http://www.w3.org/2000/svg"><path d="M35.72 5.667h-7.882a.641.641 0 00.27-.54V3.373C28.108 1.53 26.576 0 24.73 0h-9.46c-1.847 0-3.378 1.53-3.378 3.373v1.754c0 .225.09.405.27.54H4.279C1.937 5.667 0 7.601 0 9.94v19.52c0 2.339 1.937 4.273 4.28 4.273h31.44c2.343 0 4.28-1.934 4.28-4.273V9.94a4.274 4.274 0 00-4.28-4.273zm-22.477-.54V3.373c0-1.124.901-2.024 2.027-2.024h9.46c1.126 0 2.026.9 2.026 2.024v1.754c0 .225.09.405.27.54H12.974a.642.642 0 00.27-.54zM38.648 29.46a2.92 2.92 0 01-2.927 2.923H4.279a2.92 2.92 0 01-2.927-2.923V9.94a2.92 2.92 0 012.927-2.924h31.442a2.92 2.92 0 012.928 2.924v19.52z" fill="#10215B"/></svg>