<svg width="40" height="36" fill="none" xmlns="http://www.w3.org/2000/svg"><path d="M10.397 0C7.726 0 5.069 1.055 3.044 3.17c-4.05 4.23-4.062 11.019-.016 15.252l16.202 16.96c.393.414 1.138.414 1.53 0 5.405-5.646 10.797-11.298 16.203-16.944 4.05-4.23 4.05-11.023 0-15.253s-10.672-4.23-14.722 0L20.004 5.5l-2.237-2.33C15.584.879 12.879-.011 10.397 0zm0 2.07c2.105 0 4.22.853 5.856 2.561l2.994 3.136c.392.414 1.137.414 1.53 0l2.976-3.12c3.27-3.415 8.426-3.415 11.696 0 3.27 3.416 3.27 8.932 0 12.347-5.147 5.378-10.298 10.763-15.445 16.14L4.56 16.976c-3.268-3.42-3.27-8.93 0-12.346 1.635-1.708 3.734-2.562 5.84-2.562h-.002z" fill="#10215B"/></svg>