<svg width="40" height="43" fill="none" xmlns="http://www.w3.org/2000/svg"><path d="M17.858 30a.714.714 0 01-.715-.714A7.857 7.857 0 0125 21.429a.714.714 0 110 1.428 6.428 6.428 0 00-6.428 6.429.714.714 0 01-.714.714z" fill="#10215B"/><path d="M17.858 30a.714.714 0 01-.715-.714A7.857 7.857 0 0125 21.429a.714.714 0 110 1.428 6.428 6.428 0 00-6.428 6.429.714.714 0 01-.714.714z" fill="#10215B"/><path d="M17.858 30a.714.714 0 01-.715-.714A7.857 7.857 0 0125 21.429a.714.714 0 110 1.428 6.428 6.428 0 00-6.428 6.429.714.714 0 01-.714.714zM20 17.143c-2.757 0-5-2.565-5-5.714 0-3.15 2.243-5.715 5-5.715s5 2.565 5 5.715-2.243 5.714-5 5.714zm0-10c-1.97 0-3.571 1.921-3.571 4.286 0 2.364 1.6 4.285 3.571 4.285 1.972 0 3.572-1.921 3.572-4.285 0-2.365-1.6-4.286-3.572-4.286z" fill="#10215B"/><path d="M36.429 22.857h-5.714a.714.714 0 01-.715-.714v-2.857c0-.395.32-.715.715-.715h2.214a3.57 3.57 0 012.786-2.785V7.07a3.57 3.57 0 01-2.786-2.785H7.072A3.57 3.57 0 014.286 7.07v8.715a3.57 3.57 0 012.786 2.785H25a.715.715 0 01.714.715v2.857a.714.714 0 01-.714.714H3.571A3.573 3.573 0 010 19.286V3.57A3.572 3.572 0 012.629.13c.306-.09.624-.132.941-.13h32.86A3.573 3.573 0 0140 3.572v15.714a3.572 3.572 0 01-2.629 3.443c-.306.087-.624.13-.943.128zm-5-1.428h5c.188-.001.376-.027.557-.079a2.143 2.143 0 001.586-2.064V3.57a2.143 2.143 0 00-2.143-2.142H3.572c-.189 0-.376.027-.557.078A2.144 2.144 0 001.429 3.57v15.715a2.143 2.143 0 002.143 2.143h20.714V20H6.43a.714.714 0 01-.714-.714 2.143 2.143 0 00-2.143-2.143.714.714 0 01-.714-.714v-10c0-.395.32-.715.714-.715a2.143 2.143 0 002.143-2.142c0-.395.32-.715.714-.715h27.143a.714.714 0 01.714.715 2.143 2.143 0 002.143 2.142.714.714 0 01.714.715v10a.715.715 0 01-.714.714 2.144 2.144 0 00-2.143 2.143.715.715 0 01-.714.714H31.43v1.429z" fill="#10215B"/><path d="M25.715 35H15a5.714 5.714 0 01-5.714-5.714v-7.143c0-.395.32-.715.714-.715h14.286v-5a3.572 3.572 0 013.4-3.57 3.448 3.448 0 012.557.978 3.806 3.806 0 011.186 2.757v12.693A5.713 5.713 0 0125.715 35zm-15-12.143v6.429A4.286 4.286 0 0015 33.57h10.715A4.286 4.286 0 0030 29.286V16.593a2.392 2.392 0 00-.714-1.722 1.985 1.985 0 00-1.5-.585 2.143 2.143 0 00-2.071 2.142v5.715a.715.715 0 01-.715.714H10.715z" fill="#10215B"/><path d="M27.143 42.143H13.572a2.858 2.858 0 01-2.857-2.857v-2.857a2.858 2.858 0 012.857-2.858h13.571A2.858 2.858 0 0130 36.43v2.857a2.858 2.858 0 01-2.857 2.857zM13.572 35a1.429 1.429 0 00-1.429 1.429v2.857a1.429 1.429 0 001.429 1.428h13.571a1.429 1.429 0 001.429-1.428v-2.857A1.429 1.429 0 0027.143 35H13.572z" fill="#10215B"/></svg>