<svg width="40" height="42" fill="none" xmlns="http://www.w3.org/2000/svg"><path d="M37.234 29.225c-.836 0-1.543.385-2.058.9l-4.501-2.377c.643-1.22 1.029-2.505 1.286-3.854l1.415.129c.064.385.193.706.45 1.027.322.386.836.643 1.35.707h.194c1.029 0 1.864-.77 1.993-1.799.064-.513-.129-1.027-.45-1.477-.322-.385-.836-.642-1.351-.706-.515-.064-1.03.128-1.479.45-.193.192-.386.385-.514.642l-1.48-.129c0-.32.065-.642.065-.963 0-1.413-.257-2.762-.644-4.046l.9-.193c.451 1.028 1.415 1.734 2.637 1.734 1.544 0 2.83-1.284 2.83-2.826s-1.286-2.826-2.83-2.826c-1.543 0-2.83 1.284-2.83 2.826l-1.156.384a13.1 13.1 0 00-3.987-5.138l1.093-1.156c.45.321.964.45 1.543.45 1.544 0 2.83-1.285 2.83-2.827 0-1.541-1.286-2.826-2.83-2.826-1.543 0-2.83 1.285-2.83 2.826 0 .578.194 1.156.515 1.606l-1.286 1.285a13.08 13.08 0 00-4.695-1.863l.257-1.927a1.94 1.94 0 001.672-1.927c0-1.092-.9-1.99-1.993-1.99s-1.994.898-1.994 1.99c0 .835.515 1.542 1.222 1.799l-.257 1.862c-.45-.064-.836-.064-1.286-.064-1.222 0-2.379.193-3.472.514l-.965-4.047c.965-.45 1.672-1.413 1.672-2.569C16.27 1.285 14.984 0 13.44 0c-1.543 0-2.83 1.284-2.83 2.826s1.287 2.827 2.83 2.827h.13l.964 4.11c-1.865.707-3.537 1.799-4.823 3.212l-2.38-2.248c.386-.45.579-1.028.579-1.67 0-1.542-1.286-2.827-2.83-2.827-1.543 0-2.83 1.285-2.83 2.827 0 1.541 1.287 2.826 2.83 2.826.515 0 1.03-.129 1.415-.385l2.508 2.312a11.631 11.631 0 00-1.93 3.34l-2.379-.963v-.193a2.304 2.304 0 00-2.315-2.312 2.304 2.304 0 00-2.315 2.312 2.304 2.304 0 002.315 2.312c.836 0 1.544-.45 1.994-1.091l2.38.963a12.297 12.297 0 00-.58 3.79v.45l-2.379.192a1.979 1.979 0 00-1.8-1.156A2.002 2.002 0 000 23.444c0 1.093.9 1.992 1.993 1.992 1.03 0 1.801-.77 1.93-1.734l2.315-.193c.257 1.927.9 3.79 1.93 5.331l-1.673 1.542c-.321-.193-.643-.257-1.029-.257-1.093 0-1.993.9-1.993 1.991 0 1.092.9 1.991 1.993 1.991 1.094 0 1.994-.9 1.994-1.991 0-.321-.064-.642-.257-.9l1.543-1.476c1.865 2.44 4.566 4.239 7.717 4.881l-.58 1.476h-.192c-1.093 0-1.994.9-1.994 1.991 0 1.092.9 1.991 1.994 1.991a2.002 2.002 0 001.993-1.99c0-.643-.321-1.221-.771-1.542l.578-1.67c.515.064 1.03.128 1.544.128 1.8 0 3.537-.385 5.08-1.027l.9 2.248c-.771.514-1.35 1.349-1.35 2.376 0 1.542 1.286 2.827 2.83 2.827 1.543 0 2.83-1.285 2.83-2.827 0-1.541-1.287-2.826-2.83-2.826-.13 0-.322 0-.451.064l-.9-2.44c2.058-1.092 3.73-2.698 4.952-4.625l4.437 2.377a2.572 2.572 0 00-.192.963c0 1.541 1.286 2.826 2.83 2.826 1.543 0 2.829-1.285 2.829-2.826 0-1.542-1.222-2.89-2.766-2.89zm-1.928-6.23h.064c.257 0 .45.128.578.321.129.193.193.385.193.643-.064.514-.514.835-.964.77a.676.676 0 01-.579-.321 1.084 1.084 0 01-.193-.643.9.9 0 01.9-.77zm-.386-8.093c.964 0 1.736.77 1.736 1.734 0 .963-.771 1.735-1.736 1.735s-1.737-.771-1.737-1.735c0-.963.772-1.734 1.737-1.734zm-5.274-8.415c.965 0 1.737.771 1.737 1.735 0 .963-.772 1.734-1.737 1.734-.964 0-1.736-.77-1.736-1.734s.836-1.735 1.736-1.735zM5.08 10.727c-.964 0-1.736-.77-1.736-1.735 0-.963.771-1.734 1.736-1.734s1.737.77 1.737 1.734-.772 1.735-1.737 1.735zM2.315 17.15a1.22 1.22 0 110-2.441c.643 0 1.222.578 1.222 1.22 0 .707-.514 1.22-1.222 1.22zm-.386 7.065a.879.879 0 01-.9-.899c0-.514.386-.9.9-.9.515 0 .9.386.9.9s-.385.9-.9.9zm3.473 8.736a.879.879 0 01-.9-.9c0-.513.385-.899.9-.899.514 0 .9.386.9.9a.879.879 0 01-.9.899zm10.354 5.973a.878.878 0 01-.9-.9c0-.513.385-.898.9-.898.514 0 .9.385.9.899s-.45.899-.9.899zm12.475-.385c0 .963-.771 1.734-1.736 1.734s-1.736-.77-1.736-1.734.771-1.735 1.736-1.735 1.736.771 1.736 1.735zM20.514 5.33c0-.514.386-.899.9-.899.515 0 .901.385.901.9a.879.879 0 01-.9.899c-.515 0-.9-.45-.9-.9zm-7.074-.77c-.964 0-1.736-.77-1.736-1.735 0-.963.771-1.734 1.736-1.734s1.737.77 1.737 1.734-.772 1.735-1.737 1.735zm5.66 29.225c-6.56 0-11.898-5.332-11.898-11.883 0-6.552 5.338-11.883 11.897-11.883 6.56 0 11.898 5.332 11.898 11.883 0 6.552-5.338 11.883-11.898 11.883zm18.135 0c-.965 0-1.737-.77-1.737-1.735 0-.963.772-1.734 1.737-1.734.964 0 1.736.77 1.736 1.734s-.836 1.735-1.736 1.735z" fill="#10215B"/></svg>