<svg width="50" height="60" fill="none" xmlns="http://www.w3.org/2000/svg"><path d="M0 24.5c0 19.64.037 24.7.163 25.465.387 2.189 1.575 3.413 4.025 4.119.687.2 1.425.223 8.375.282 6.962.06 7.687.083 8.312.283.613.2 1.6.741 1.938 1.07.837.813 1.8 2.66 2 3.849.1.576.274.576.375 0 .15-.918.875-2.495 1.487-3.26.712-.883 1.337-1.283 2.637-1.671.863-.259.963-.27 8.1-.27 6.938 0 7.276-.012 8.188-.248 1.688-.423 2.175-.718 3.45-2.012.113-.106.2-.259.2-.33 0-.07.1-.294.212-.506.525-.965.538-1.035.538-26.77V0H0v24.5zM49.5.588c.075.106.125 7.084.125 18.44v18.275H.375V19.028C.375 8.99.425.706.475.635c.05-.082.2-.164.338-.2C.95.4 11.937.388 25.224.4 46.55.412 49.4.435 49.5.588zm.125 37.833v1H.375v-2h49.25v1zm-30.875 2.53c-.2.365-.288.212-.1-.176.088-.177.175-.271.2-.2.025.07-.025.247-.1.376zm1.438-.259c-.038.036-.138 0-.226-.082-.112-.118-.1-.13.076-.059.125.035.187.106.15.141zm.524-.14c-.037.034-.15.046-.237.01-.1-.034-.063-.07.075-.07.137-.011.212.024.162.06zm-2.3.293c-.075.07-.112.212-.075.294.038.095 0 .165-.075.165s-.137-.023-.137-.047a1.41 1.41 0 00-.087-.259c-.05-.13-.038-.176.062-.117.075.035.162.023.212-.047.038-.06.113-.118.163-.118.037 0 .012.059-.063.13zm2.3-.059c-.037.036-.15.047-.237.012-.1-.035-.063-.07.075-.07.137-.012.212.023.162.058zm1.163.047c-.1.06-.238.118-.313.118-.062 0-.037-.059.063-.117a.86.86 0 01.313-.118c.075 0 .037.059-.063.117zm-2.625.048c0 .023-.087.082-.2.117-.1.036-.15.024-.113-.047.075-.117.313-.165.313-.07zm2.712.33c-.037.093-.075.058-.075-.072-.012-.129.026-.2.063-.153.038.036.05.142.012.224zm-.274.446c.312.295.625.471.812.471.2 0 .25.035.163.094-.1.059.05.153.4.247.387.106.637.27.862.589.175.235.325.494.325.576 0 .083.063.141.15.141.075 0 .113.036.075.071-.05.035-.2.012-.338-.059-.412-.212-.2.141.238.389.4.211.738.658.5.658-.063 0-.125-.047-.125-.105 0-.06-.087-.142-.188-.177-.175-.059-.175-.047 0 .188.1.153.188.377.188.518 0 .153.113.294.288.341.237.083.212.106-.175.142-.4.047-.45.082-.388.306.05.211.037.235-.113.129-.1-.07-.412-.165-.712-.2-.313-.035-.612-.153-.712-.282-.15-.177-.175-.189-.188-.024 0 .224.5.459 1.012.459.213 0 .4.07.438.177.113.27.413.211.5-.106.063-.236.163-.283.713-.342a7.091 7.091 0 001.25-.259c.424-.129.987-.188 1.875-.176.7.012 1.524-.047 1.837-.118.413-.094.712-.094 1.188.012.524.118 1.45.565 1.687.812.038.047.3.188.6.33.65.317 1.2.329 1.913.035.3-.118.687-.26.862-.306.3-.07.3-.07-.063.212-.45.353-.362.54.1.2.325-.236 1.138-.33 1.263-.13.05.06-.037.083-.162.047-.238-.059-.763.2-1.163.577-.275.259-.087.27.438.035l.4-.188-.338.27c-.2.154-.35.33-.35.389 0 .141-.875.412-1.337.412-.275 0-.313.023-.163.117.138.083.063.118-.3.118-.475 0-.488 0-.263.236.263.282.175.294-.3.07-.187-.094-.637-.212-.987-.259-.362-.035-.65-.117-.65-.153 0-.047-.163-.164-.362-.282a1.718 1.718 0 01-.563-.577l-.212-.388.087.412c.063.376.063.4-.125.223-.113-.094-.238-.388-.287-.647-.076-.506-.463-.988-.8-.988a.584.584 0 01-.363-.177c-.175-.2-.375-.235-.375-.07 0 .058.1.14.225.176.25.082.775 1.06.775 1.436 0 .494.425 1.353.712 1.412.488.117.526-.06.088-.506-.488-.483-.5-.683-.012-.224.187.165.287.306.237.306-.05.012.05.083.225.177.175.094.237.164.163.176-.088 0-.163.059-.163.13 0 .094.188.106.563.058.512-.082.587-.058.887.248.25.258.3.27.237.094-.037-.13-.037-.189.013-.142.05.047.188 0 .313-.105.175-.142.262-.153.45-.047.2.117.2.117-.038.058-.3-.07-.625.212-.475.424.05.094.037.106-.05.059-.288-.165-.137.223.225.6.288.294.475.388.813.388.412 0 .437.024.437.365v.377l-.587-.071c-.538-.059-.575-.047-.35.106.124.094.362.165.524.165.2 0 .3.082.363.294.05.165.05.341 0 .376-.188.177-1.075-.258-1.525-.753-.7-.765-.987-.87-2.287-.847-1.313.012-1.838-.118-2.663-.718-.6-.423-1.513-.718-2.2-.694-.188 0-.25.035-.15.07.1.024.275.083.375.118.25.07-.525.424-1.4.636-1.413.34-4.938.106-4.763-.318.038-.094 0-.165-.062-.165-.075 0-.162.106-.212.224-.063.212-.175.223-1.726.164-1.55-.058-1.674-.047-2.087.189-.325.2-.35.247-.137.188l.3-.082-.276.353c-.137.2-.262.459-.262.576a.83.83 0 01-.15.412c-.175.2-.85.365-.85.2 0-.094-.162-.082-.588.06-.162.046-.387.034-.5-.036-.125-.07-.15-.13-.062-.13.075 0 .15-.082.15-.176 0-.094.063-.177.15-.177.162 0 1.088-.917 1.512-1.494.175-.259.388-.389.588-.4.488-.012 1.188-.283 1.188-.46 0-.211.762-.635.95-.517.1.047 0 .153-.276.294-.237.118-.35.212-.262.224.225 0 1.15-.506 1.15-.636 0-.059-.087-.035-.188.047-.112.083-.237.118-.274.071-.125-.106-.113-.883.012-1.848a7.79 7.79 0 00.025-1.53l-.087-.752-1.075-.036c-.638-.023-1.125.012-1.226.095-.287.223-.687-.106-.687-.554 0-.353.063-.412.813-.753.45-.2.85-.412.887-.47.15-.236 1.063-.695 1.387-.706l.35-.012-.312-.083-.313-.082.313-.165c.425-.223.425-.223.512.177.088.353.088.353.1.035.013-.247.088-.33.363-.365.762-.13 1.325.036 1.837.506zm-4.363-.106a.212.212 0 01-.05.247c-.075.071-.137.024-.188-.129-.062-.259.088-.341.238-.118zm.863-.011a.322.322 0 01-.226.117c-.087 0-.075-.047.038-.117.238-.142.288-.142.188 0zm4.687.047c0 .13-.238.176-.313.07-.037-.059.013-.117.113-.117.113 0 .2.023.2.047zm.788.035a1.004 1.004 0 01-.375 0c-.125-.035-.05-.059.15-.059.212 0 .3.024.225.059zm.125.447c-.1.259-.276.212-.2-.059.037-.13.112-.2.174-.176.05.035.075.141.026.235zm-.576.012c-.037.035-.15.047-.237.012-.1-.036-.063-.07.075-.07.137-.013.212.023.162.058zm.838.47c.075.177.05.177-.137.036-.125-.083-.25-.177-.276-.188-.024-.024.038-.036.138-.036a.31.31 0 01.275.189zm.45.048c0 .059-.025.117-.05.117-.037 0-.1-.059-.137-.117-.038-.07-.013-.118.05-.118.075 0 .137.047.137.118zm-8.875.282c0 .024-.088.106-.188.188-.162.13-.175.118-.112-.047.063-.164.3-.27.3-.14zm8.863.412c-.026.07-.125-.024-.213-.2-.137-.294-.137-.294.05-.118.113.106.188.247.163.318zm.325.012c.037.059.012.117-.05.117-.076 0-.138-.058-.138-.117 0-.07.025-.118.05-.118.037 0 .1.047.137.118zm-9.188.164c0 .036-.05.095-.125.13-.063.035-.125.012-.125-.047 0-.07.063-.13.125-.13.075 0 .125.024.125.047zm-.488.46c-.125.105-.137.094-.062-.071.038-.118.113-.177.15-.141.037.035 0 .129-.088.211zm.463.117c.1.118.075.153-.112.153-.238 0-.3-.082-.15-.224.1-.105.112-.105.262.071zm3.025.553c0 .059-.05.118-.125.118-.063 0-.125-.059-.125-.118 0-.07.063-.117.125-.117.075 0 .125.047.125.117zm6.875.118c0 .059-.025.117-.05.117-.037 0-.1-.058-.137-.117-.038-.07-.013-.118.05-.118.075 0 .137.047.137.118zm1 .647c-.238.082-.525.153-.625.153-.1 0 .012-.07.25-.153.238-.082.525-.153.625-.153.1 0-.012.07-.25.153zm6.313.059c.062.106.612.365 1.062.506.138.047.138.07-.038.07-.125.012-.35-.047-.5-.117-.425-.212-.887-.577-.737-.577.075 0 .175.047.212.118zm.95.212a.356.356 0 01-.288-.07c-.1-.095-.05-.107.163-.06.162.047.224.094.125.13zm3.275.106a.698.698 0 01-.313 0c-.087-.036-.025-.06.15-.06s.237.024.163.06zm.587.035c0 .059-.025.118-.05.118-.038 0-.1-.06-.138-.118-.037-.07-.012-.118.05-.118.075 0 .138.047.138.118zm.462.424c-.037.035-.15.047-.237.011-.1-.035-.063-.07.075-.07.138-.012.213.023.163.059zm-7 .93c0 .093-.05.14-.112.105-.063-.035-.075-.118-.038-.176.113-.153.15-.13.15.07zm7.038-.13c0 .023-.087.07-.188.117-.1.036-.187.012-.187-.047 0-.07.087-.117.188-.117.1 0 .187.023.187.047zm-19.788.682c-.037.083-.062.024-.062-.14 0-.166.025-.224.063-.154a.586.586 0 010 .294zm18.976.13c.075.047.012.082-.126.059-.15-.024-.237.023-.212.117.012.094-.025.13-.1.083-.087-.047-.087-.153.013-.306.075-.142.175-.2.212-.142.05.047.15.13.212.189zm-19.963.4a.859.859 0 01-.163.153c-.024 0-.062-.07-.1-.153-.037-.083.038-.153.175-.153.163 0 .188.035.088.153zm15.15.106c0 .023-.087.047-.188.047-.1 0-.187-.047-.187-.118 0-.059.087-.082.188-.047.1.047.187.094.187.118zm4.413.247a.698.698 0 01-.313 0c-.087-.035-.025-.059.15-.059s.237.023.163.059zm-1.038.27c-.1.06-.237.118-.313.118-.062 0-.037-.059.063-.117a.86.86 0 01.313-.118c.075 0 .037.059-.063.117zm-20.363.389c-.125.106-.137.094-.062-.07.038-.119.113-.177.15-.142.037.035 0 .13-.088.212zm-.2.2c.038.059.013.118-.05.118-.075 0-.137-.06-.137-.118 0-.07.025-.118.05-.118.037 0 .1.047.137.118zm12.4-.047c-.037.035-.15.047-.237.012-.1-.036-.063-.071.075-.071.137-.012.212.024.162.059zm-26.937.341c.037.153.012.259-.037.224-.113-.06-.163-.518-.063-.518.025 0 .075.13.1.294zm27.088-.106c.125.106-.563.035-.738-.07-.137-.083-.063-.095.25-.047.238.047.462.094.488.117zm-.813.106c.137.094.2.177.125.177-.063 0-.225-.083-.35-.177-.137-.094-.2-.176-.125-.176.063 0 .225.082.35.176zm1.575.059c.163.094.163.118-.025.118-.113 0-.25-.06-.288-.118-.1-.153.063-.153.313 0zm6.188.33c-.076.093-.438-.142-.438-.283 0-.13.05-.118.225.035.125.118.225.224.212.247zm-20.6.164c-.038.094-.075.059-.075-.07-.013-.13.024-.2.062-.153.038.035.05.14.013.223zm10.95-.059a1.004 1.004 0 01-.375 0c-.125-.035-.05-.059.15-.059.212 0 .3.024.225.06zm-10.413.153c0 .06-.063.118-.137.118-.063 0-.088-.059-.05-.118.037-.07.1-.117.137-.117.025 0 .05.047.05.117zm7.587.07c-.037.036-.15.048-.237.013-.1-.036-.063-.07.075-.07.137-.013.212.023.162.058zm2.625 0c-.037.036-.15.048-.237.013-.1-.036-.063-.07.075-.07.137-.013.212.023.162.058zm4.788.119c0 .023-.087.047-.188.047-.1 0-.187-.047-.187-.118 0-.059.087-.082.188-.047.1.047.187.094.187.118zm6.888.34c.062-.046.112-.01.112.048 0 .07-.087.13-.188.13-.124 0-.187-.107-.174-.33.025-.27.025-.283.075-.047.024.141.112.235.175.2zm-19.775.036c-.013.177-.026.177-.075-.012-.026-.105-.113-.164-.188-.13-.088.048-.1.025-.05-.058.125-.176.325-.047.313.2zm15.262-.212c.138.083.063.094-.25.047-.538-.094-.637-.164-.238-.164.163 0 .388.059.488.117zm3.875.189c.175.423.163.506-.125.435-.175-.047-.25-.165-.25-.4 0-.424.212-.447.375-.035zm-22.438.517a.295.295 0 01-.2.118c-.075 0-.087-.059-.05-.118a.257.257 0 01.2-.117c.075 0 .088.047.05.117zm-12.1.26c-.037.093-.075.058-.075-.071-.012-.13.026-.2.063-.153.038.035.05.14.012.223zm32.213-.154c.038.06-.012.13-.112.165-.113.047-.15.012-.1-.106.075-.188.124-.2.212-.059zm2.238.094c.037.06.1.271.15.483.075.365.075.377-.226.247-.212-.094-.3-.224-.3-.47 0-.318.238-.471.376-.26zm.925-.011c-.038.035-.15.047-.238.011-.1-.035-.063-.07.075-.07.138-.012.213.023.163.059zm11.687.188c-.087.082-.15.094-.15.023 0-.164.15-.305.237-.223.026.035-.012.13-.087.2zm-34.287-.07c.437.082.475.176.187.447-.213.211-1.175.258-1.175.07 0-.13.387-.588.512-.588.05 0 .263.035.476.07zm1.387.246c0 .153-.838.577-.95.471-.025-.023-.013-.2.025-.388.063-.318.113-.341.5-.306.263.035.425.117.425.223zm-13.75.106c0 .095-.05.142-.125.106-.063-.035-.125-.117-.125-.188 0-.059.063-.106.125-.106.075 0 .125.082.125.188zm46.5-.023c0 .035-.05.094-.125.13-.063.035-.125.011-.125-.048 0-.07.063-.13.125-.13.075 0 .125.024.125.048zm-13.538.141c-.037.035-.15.047-.237.012-.1-.035-.063-.07.075-.07.138-.013.213.023.163.058zM16 52.413c0 .023-.088.082-.2.118-.1.035-.15.023-.113-.047.075-.118.313-.165.313-.071zm19.288.13c.037.07-.038.129-.15.129-.125 0-.225-.06-.225-.13 0-.082.075-.14.162-.14.087 0 .188.058.212.14zm12.275.294a.322.322 0 01-.226.117c-.087 0-.075-.047.038-.117.237-.142.288-.142.188 0zM3.5 53.188c0 .06-.05.118-.125.118-.063 0-.125-.059-.125-.117 0-.071.063-.118.125-.118.075 0 .125.047.125.117zm26.563.695c-.038.07-.175.117-.288.117-.188-.011-.188-.023.013-.07.112-.024.212-.106.212-.177 0-.07.038-.106.075-.058.038.035.038.117-.012.188zm-1 .247c-.038.059-.175.118-.288.106-.175 0-.162-.024.038-.106.337-.13.337-.13.25 0zm-7.85.07c-.038.036-.15.048-.238.012-.1-.035-.063-.07.075-.07.137-.012.212.023.162.059zm1.474.542c.175.07.313.176.313.235s-.163.024-.375-.082c-.563-.27-.512-.4.063-.153zm4.813.094c-.25.153-.625.141-.625-.012 0-.059.05-.082.125-.047.063.035.225.024.337-.047.276-.141.413-.047.163.106zm-1.225.847a.573.573 0 00-.15.377c0 .117-.038.2-.075.153-.125-.118.063-.671.225-.671.113 0 .113.035 0 .141zm-2.275.33c0 .13-.025.235-.05.235s-.075-.106-.113-.235c-.037-.13-.012-.236.05-.236.063 0 .113.106.113.236zm.788.647c-.038.106-.1.165-.125.13-.038-.036-.026-.106.024-.177.113-.188.188-.153.1.047zm.837.294c0 .059-.063.118-.137.118-.063 0-.088-.059-.05-.118.037-.07.1-.117.137-.117.025 0 .05.047.05.117zm-1 .118c0 .059-.025.117-.05.117-.037 0-.1-.058-.137-.117-.038-.07-.013-.118.05-.118.075 0 .137.047.137.118zm.5 1c0 .094-.05.177-.125.177-.063 0-.125-.083-.125-.177 0-.094.063-.176.125-.176.075 0 .125.082.125.176z" fill="#FDFFFF"/><path d="M23.862 4.06v.823c.013.388-.025.765-.075.836-.062.07-.437.188-.85.259-1.375.235-2 .376-2.287.518-.238.117-.325.094-.587-.142-.35-.306-.413-.188-.113.212.238.318.363.318 1.025.024.275-.13.637-.236.8-.236.162 0 .487-.047.725-.106.237-.058.7-.14 1.037-.188l.588-.07V4.117h1.625v1.86l.912.141c.488.07 1.1.165 1.338.188.412.036.4.036-.125-.141a7.844 7.844 0 00-1.213-.247L26 5.849V4.011l-1.063-.035c-.65-.024-1.062.011-1.075.082zm-5.487.764a6.41 6.41 0 00-.563.33 5.276 5.276 0 01-.524.294c-.226.106-.576.283-.788.388-.2.095-.4.236-.438.295-.05.059-.137.082-.2.047-.225-.141-.112.494.138.706.275.235.325.165.125-.188-.175-.295-.063-.4 1.15-1.036.538-.27 1-.542 1.038-.612.05-.059.212-.106.375-.106.225 0 .375.118.562.459.225.435.5.718.5.541 0-.117-.8-1.353-.875-1.341-.038 0-.262.106-.5.223zm12.45-.058c-.113.106-.2.27-.2.353a.333.333 0 01-.163.259c-.087.047-.237.27-.325.47-.1.212-.212.389-.274.389-.063 0-.113.082-.113.176 0 .094-.113.177-.25.177s-.25-.06-.25-.118c0-.07-.188-.118-.4-.118l-.413.012.438.224c.688.353.913.306 1.238-.27.75-1.307.85-1.437 1.087-1.401.125.023.325.117.425.188.1.082.55.341 1 .565 1.45.718 1.375.647 1.1 1.141a18.12 18.12 0 01-.538.895c-.5.741-.5.753-.05 1.118.9.74 1.075.906 1.15 1.094.038.106.163.2.276.2.1 0 .187.07.187.165 0 .094.175.341.388.553.412.424.412.424 1.6-.259.224-.13.437-.224.45-.2.012.023.237.341.487.706l.45.682-.413.2c-.237.118-.625.318-.875.436-.512.259-.55.365-.25.718.188.223.188.223.113-.07-.063-.26 0-.342.4-.554.25-.141.612-.318.8-.4.45-.188.5-.447.15-.87-.162-.19-.3-.4-.3-.46-.013-.165-.45-.647-.6-.647-.075 0-.15.035-.175.082-.013.06-.375.248-.775.448-.563.27-.75.317-.8.188-.1-.27-1.65-1.789-2.2-2.165-.238-.165-.225-.2.3-1.095.288-.506.6-.965.675-1.012.2-.13-.262-.53-.875-.753-.3-.106-.55-.247-.55-.294 0-.059-.2-.177-.45-.283-.237-.094-.412-.223-.362-.294.037-.059 0-.082-.113-.047-.1.036-.313-.023-.488-.13-.287-.176-.325-.176-.512 0zM16.25 7.237c0 .047.162.341.35.636l.35.54-.575.472a9.956 9.956 0 00-1.038 1c-1.062 1.2-.887 1.106-1.425.87a8.075 8.075 0 01-.812-.423c-.175-.118-.388-.212-.463-.212-.075 0-.275.259-.45.577-.162.318-.362.612-.437.659-.213.117-.15.647.075.647.112 0 .35.094.525.212.187.117.437.259.562.294.363.13.375.377.038 1-.175.318-.288.6-.263.636.025.023-.087.494-.25 1.035-.162.542-.275 1.024-.237 1.047.112.118.275-.247.425-.976.137-.67.487-1.648.8-2.295.1-.212.1-.294-.013-.33a4.802 4.802 0 01-.562-.305c-.225-.141-.563-.33-.75-.424l-.338-.165.238-.33c.137-.176.25-.364.25-.423.012-.047.112-.212.25-.365l.237-.259.475.248c.9.494 1.138.576 1.338.506.112-.036.2-.153.2-.236 0-.094.55-.694 1.237-1.33l1.225-1.14-.225-.272c-.137-.153-.237-.34-.237-.423 0-.07-.113-.236-.25-.353-.138-.118-.25-.177-.25-.118zm5.938.812c-.888.247-1.838.588-2.188.788-.1.06-.413.212-.675.353-.275.142-.563.306-.65.389-.075.07-.275.211-.425.306-.462.294-2 1.8-2 1.965 0 .082-.038.153-.087.153-.263 0-1.1 1.506-1.638 2.942-.313.823-.338 1.012-.338 3 0 1.93.026 2.19.3 2.942.538 1.495 1.063 2.4 2 3.519.613.718 2.038 1.906 2.763 2.295.738.4 1.738.823 2.35 1.011.637.189.65.2.662.683.013.494.013.494.138-.153.075-.353.188-.682.263-.73.1-.047.05-.152-.125-.306-.238-.188-.263-.305-.213-.847.05-.588.175-.977.175-.553 0 .106.05.224.125.26.175.105.038-2.072-.212-3.084l-.2-.835-.388.047c-.287.047-.475-.012-.762-.248-.238-.2-.325-.33-.226-.364.1-.047.038-.165-.2-.353-.2-.153-.35-.377-.337-.483 0-.141-.088-.223-.262-.247-.313-.047-.4-.435-.138-.518.088-.035-.025-.153-.25-.27-.375-.212-.45-.342-.438-.742.013-.07-.037-.141-.1-.141-.05 0-.45-.318-.887-.706-.425-.388-.938-.777-1.125-.86-.363-.14-.463-.317-.2-.317.188 0 1.475.942 1.475 1.071 0 .059.087.106.188.106.1 0 .187-.035.187-.07 0-.142-1.275-1.213-1.512-1.283-.138-.047-.213-.13-.163-.189.038-.058.213-.011.4.106.563.365.65.4.65.236 0-.083-.188-.271-.413-.424-.25-.165-.325-.259-.2-.259a.58.58 0 01.363.177c.075.094.275.2.413.247.15.035.4.188.55.317.162.13.325.212.362.165.125-.117-.037-.27-.762-.73-.375-.235-.688-.47-.688-.54 0-.165.05-.142.813.423.4.282.774.494.825.459.137-.07-.15-.518-.338-.518-.075 0-.238-.106-.363-.235-.125-.13-.3-.236-.4-.236-.087 0-.162-.058-.162-.129 0-.07.262.012.575.188.5.283.563.295.538.094a.502.502 0 01.05-.34c.05-.083-.026-.166-.213-.213-.188-.047-.425-.259-.587-.541-.163-.259-.35-.47-.438-.47-.1 0-.225-.107-.3-.236-.075-.13-.188-.235-.262-.235-.063 0-.238-.106-.388-.236-.238-.2-.238-.235-.063-.235.113 0 .213.047.213.094s.15.177.35.282c.188.106.525.365.75.577.225.2.438.341.487.294.05-.035-.024-.176-.162-.306a8.949 8.949 0 01-.375-.376c-.238-.247-.675-.565-.788-.565-.062 0-.175-.082-.262-.177-.262-.294.087-.211.575.13.325.235.425.27.425.13 0-.107-.188-.318-.4-.483-.225-.165-.363-.306-.313-.306.2 0 .65.27.813.494.087.118.237.212.325.212.087 0 .287.118.438.247l.287.259-.087-.259c-.063-.177-.025-.247.112-.247.113 0 .2-.047.2-.106 0-.13-1.113-1.07-1.262-1.07-.063 0-.113-.06-.113-.119 0-.188.238-.129.462.118.125.13.263.236.313.236.1 0 .425.317.975.93.137.152.25.411.25.576 0 .223.038.259.163.165.224-.177.612.258.637.706.012.435.188.423.275-.012.05-.2.175-.377.288-.4.175-.047.175-.06-.026-.07-.125-.013-.287-.201-.412-.483-.113-.26-.25-.471-.313-.471-.062 0-.112-.082-.112-.188 0-.165-.675-1.071-.938-1.248-.062-.047-.087-.117-.05-.153.088-.082.988.765.988.942 0 .058.113.247.25.412.225.27.25.27.25.058 0-.129-.113-.364-.25-.53-.137-.164-.25-.352-.25-.423 0-.07-.113-.223-.25-.341-.262-.224-.325-.412-.137-.412.062 0 .237.2.387.435.175.271.313.389.337.295.038-.083-.087-.365-.262-.612-.363-.518-.287-.636.113-.165.137.165.4.447.6.636.187.2.337.435.337.529 0 .094.063.176.125.176.075 0 .125-.023.125-.046 0-.095-.538-.942-.837-1.319-.163-.2-.288-.411-.288-.47 0-.141.637.541.9.965.113.188.263.353.338.376.224.07-.075-.541-.5-1.047-.413-.494-.325-.636.1-.2.35.365 1.037 1.73 1.037 2.06 0 .152.075.27.175.27.212 0 .325.259.325.73 0 .27.05.34.188.282.15-.047.187.047.187.518 0 .341.063.588.137.588.088 0 .1-.13.05-.353-.05-.2-.037-.353.025-.353.125 0 .113-1.483-.024-3.448-.05-.706-.038-1.141.037-1.141.063 0 .15.082.2.176.05.13.262.177.825.177s.775-.047.825-.177c.05-.094.137-.176.2-.176.113 0 .1 1.424-.05 3.789-.025.447 0 .8.05.8.063 0 .075.2.038.435-.063.33-.05.4.05.271.075-.094.137-.4.137-.67 0-.4.038-.483.188-.436.137.059.187-.024.187-.318 0-.447.1-.623.375-.718.113-.035.2-.211.225-.388.063-.706 1.25-2.507 1.45-2.2.037.07-.025.188-.175.258-.137.071-.25.177-.25.248 0 .058-.113.223-.25.364-.137.142-.25.389-.238.553v.306l.138-.27c.075-.142.188-.26.25-.26.05 0 .1-.07.1-.152.012-.165.613-.836.7-.765.025.035-.1.27-.287.518-.526.706-.663.965-.65 1.188 0 .153.05.13.15-.094.087-.165.375-.553.65-.882.262-.318.512-.6.524-.624.026-.024.076-.012.113.023.05.047-.063.26-.238.471-.2.247-.274.447-.212.553.075.106.113.094.175-.082.1-.318.575-.718.575-.506 0 .082-.087.235-.188.341-.575.565-.987 1.424-.687 1.424.288 0-.05.894-.375.988-.137.024-.113.047.05.06.162.011.212.082.162.246a.37.37 0 00.113.365c.137.106.175.07.175-.176 0-.412.337-.895.575-.812.113.035.175-.024.175-.165 0-.13.113-.33.25-.447.137-.118.25-.26.25-.306 0-.118.613-.694.738-.694.05 0 .2-.106.325-.236.237-.247.437-.306.437-.141 0 .059-.25.27-.563.47-.587.389-.837.742-.587.824.087.024.15.13.15.224 0 .165.025.165.225 0 .125-.118.3-.2.375-.2.075 0 .212-.094.3-.212.15-.188.638-.494.788-.494.187 0 .012.2-.313.376-.212.106-.375.283-.375.389 0 .153.087.13.462-.118.525-.33.775-.388.538-.118-.087.095-.212.177-.263.177-.162 0-1.237 1.024-1.237 1.177 0 .07.375-.165.837-.53.463-.353.913-.647 1.013-.647.1 0-.125.224-.5.494-.813.588-1.025.8-1.138 1.071-.05.118-.262.282-.474.365-.213.082-.338.188-.263.235.063.035.1.177.063.306-.063.236.137.33.274.13.075-.13.838-.506.9-.448.013.024-.237.212-.575.412-.612.377-.9.73-.587.73.087 0 .262-.106.387-.236.125-.129.275-.235.338-.235s.2-.082.3-.176c.213-.189.425-.236.425-.083 0 .047-.188.177-.4.294-.525.271-1.15.777-1.063.871.038.035.226-.047.413-.188.188-.13.4-.247.488-.247.075 0 .25-.106.375-.236.124-.129.312-.235.424-.235.125 0 .05.118-.237.353-.425.341-.462.66-.038.341.363-.259.788-.47.788-.364 0 .047-.225.211-.5.376-.575.33-1.363 1.177-1.087 1.177.087 0 .35-.188.587-.412.388-.377 1-.765 1.188-.765.037 0 .062.047.062.118 0 .059-.087.117-.188.117-.1 0-.312.118-.462.26-.163.152-.613.54-1 .882-.375.33-.725.73-.775.883-.037.153-.25.388-.475.53-.225.152-.338.27-.25.27.3 0 .162.447-.175.518-.225.058-.3.14-.25.282.05.13-.063.282-.338.459-.212.153-.325.27-.237.27.287 0 .15.306-.238.518-.237.13-.512.189-.724.153-.338-.07-.338-.07-.55 1.071-.238 1.318-.35 2.871-.2 2.777.062-.035.112-.14.112-.235 0-.094.063-.165.137-.165.226 0 .05 1.271-.212 1.542-.175.176-.188.259-.075.33.087.046.2.317.262.611l.113.518.012-.447c.013-.236.05-.424.113-.412.225.059 1.688-.506 2.775-1.095.962-.517 2.688-2.035 2.55-2.259-.05-.07-.05-.106 0-.059.1.083.575-.247.575-.412 0-.047.063-.152.125-.235.612-.682 1.1-1.66 1.563-3.13.274-.87.312-1.212.312-2.707-.013-1.388-.05-1.847-.25-2.365a4.941 4.941 0 01-.25-.847c0-.247-.75-1.671-.9-1.718-.05-.024-.1-.118-.1-.212 0-.212-.388-.636-.525-.565-.05.035-.063-.012-.025-.106.15-.388-2.663-2.906-3.25-2.906-.1 0-.2-.047-.225-.095-.063-.153-1.35-.753-1.85-.859-.238-.047-.75-.164-1.125-.27-1.063-.283-3.925-.236-5.063.094zm4.65.141c-.038.035-.15.047-.238.012-.1-.035-.063-.07.075-.07.137-.012.212.023.162.058zm-4.175.13a.7.7 0 01-.313 0c-.088-.036-.025-.06.15-.06s.238.024.163.06zm5.312.117a1.363 1.363 0 01-.438 0c-.124-.035-.024-.059.213-.059.238 0 .337.024.225.06zm-7.225.318c0 .023-.087.082-.2.118-.1.035-.15.023-.113-.047.075-.118.313-.165.313-.071zm8.925.412c.05.059-.038.082-.175.047-.288-.07-.325-.153-.075-.153.1 0 .212.047.25.106zm-9.55.082c0 .094-.238.153-.3.07-.037-.058.012-.105.113-.105.1 0 .187.023.187.035zm-.6.306c-.087.083-.15.094-.15.024 0-.165.15-.306.238-.224.024.035-.013.13-.088.2zm6.4.035c-.05.095-.137.177-.2.177-.075 0-.063-.07.025-.177.087-.094.175-.176.2-.176.025 0 .012.082-.025.176zm-1.55.06c-.1.058-.238.117-.313.117-.062 0-.037-.059.063-.118s.25-.117.313-.117c.075 0 .037.058-.063.117zm2.475.046c-.088.094-.213.142-.275.106-.05-.035-.025-.106.063-.164.274-.153.387-.13.212.058zm-.513.024c-.037.035-.15.047-.237.012-.1-.036-.063-.07.075-.07.137-.013.212.023.162.058zm-7.55.282c-.112.13-.237.2-.262.177-.075-.07.225-.412.363-.412.062 0 .012.106-.1.235zm4.3.024c-.037.094-.075.059-.075-.07-.012-.13.026-.2.063-.154.038.036.05.141.012.224zm1.663-.212c0 .035-.05.094-.125.13-.063.035-.125.011-.125-.048 0-.07.063-.129.125-.129.075 0 .125.023.125.047zm6.413.318c-.113.106-.15.082-.125-.106.012-.165.062-.212.137-.141.087.082.075.164-.012.247zm-7.413-.13c0 .06-.063.118-.137.118-.063 0-.088-.059-.05-.118.037-.07.1-.117.137-.117.025 0 .05.047.05.117zm1.9.141c-.087.083-.15.095-.15.024 0-.165.15-.306.238-.224.024.036-.013.13-.088.2zm.863.071c0 .165.024.165.124-.035s.113-.2.05.059c-.024.164-.062.4-.075.53-.012.152-.05.117-.112-.119-.05-.2-.137-.458-.188-.576-.075-.165-.062-.2.038-.141.087.047.15.176.162.282zm-1.8-.023c-.038.035-.15.047-.238.011-.1-.035-.063-.07.075-.07.137-.012.212.023.162.059zm-1.376.305c-.037.095-.075.06-.075-.07-.012-.13.026-.2.063-.153.038.035.05.141.012.223zm4.863.236c-.113.141-.2.224-.2.176 0-.129.3-.553.35-.494.025.024-.038.165-.15.318zm-7.387-.141c.037.07-.013.082-.113.047-.225-.083-.262-.165-.087-.165a.24.24 0 01.2.118zm1.812 0c0 .059-.025.117-.05.117-.037 0-.1-.059-.137-.117-.038-.07-.013-.118.05-.118.075 0 .137.047.137.118zm.962.553c-.037.117-.062.023-.062-.2 0-.224.025-.318.063-.212a1.14 1.14 0 010 .412zm6.113-.33c0 .13-.075.2-.162.165-.076-.035-.113-.13-.076-.224.088-.235.238-.2.238.06zm-12.225.189c-.075.164-.163.27-.188.247-.062-.06.188-.542.276-.542.037 0-.013.13-.088.295zm3.087-.177c.038.059.013.118-.05.118-.075 0-.137-.06-.137-.118 0-.07.025-.118.05-.118.037 0 .1.047.137.118zm11.726.27c.037.095 0 .165-.088.165a.163.163 0 01-.163-.164c0-.083.05-.153.1-.153s.113.07.15.153zm.462.083c0 .059-.025.118-.05.118-.038 0-.1-.06-.138-.118-.037-.07-.012-.118.05-.118.075 0 .138.047.138.118zm-10 .353c.063-.094.125-.023.188.224.05.211.05.412.012.447-.037.047-.075-.047-.075-.2 0-.153-.038-.236-.087-.2-.088.082-.4-.26-.4-.447 0-.071.05-.024.124.105.113.165.163.177.238.071zm4.65.259c-.137.247-.137.247-.075-.082.05-.271.038-.306-.063-.177-.075.094-.137.118-.137.047 0-.2.163-.294.3-.165.075.071.063.2-.025.377zm3.225-.447c0 .035-.05.094-.125.13-.063.035-.125.011-.125-.048 0-.07.063-.13.125-.13.075 0 .125.024.125.048zm.688.27c-.038.189-.125.377-.188.436s-.05-.083.025-.318c.163-.506.288-.588.163-.117zm.562-.2c0 .06-.025.118-.05.118-.037 0-.1-.059-.137-.118-.038-.07-.013-.117.05-.117.075 0 .137.047.137.117zm-13.05.26c.05.046.2.035.35-.036.25-.118.25-.118.025.059-.287.223-.45.235-.45.059 0-.153-.512-.012-.663.176-.075.083-.087.059-.05-.07.038-.106.013-.224-.075-.248-.087-.035.063-.047.313-.035.25.012.5.059.55.094zm-2.075.482c-.1.106-.113.082-.05-.094.088-.212.075-.212-.113-.071-.237.177-.287.012-.062-.2.113-.106.175-.106.263.047.075.118.062.235-.038.318zm16.638-.012c-.138.13-.163.118-.088 0 .05-.082.025-.247-.063-.353-.15-.177-.137-.177.075 0 .2.176.213.235.076.353zm-3.575.318c-.313.388-.563.753-.563.824 0 .07-.05.129-.125.129-.188 0-.15-.13.125-.53l.4-.588c.188-.259.488-.518.625-.53.05 0-.15.318-.462.695zm1.062-.6c0 .047-.125.153-.275.247-.288.165-.288.165-.05-.094.25-.26.325-.295.325-.153zm-7.288.282c-.037.094-.075.059-.075-.07-.012-.13.026-.2.063-.154.038.036.05.142.012.224zm-4 .235c.026.189-.012.2-.162.095-.225-.177-.225-.318-.012-.318.087 0 .174.106.174.223zm10.976.095c-.2.188-.388.329-.413.294-.063-.06.6-.648.713-.648.037 0-.1.154-.3.354zm-3.976.023c-.037.094-.075.059-.075-.07-.012-.13.026-.2.063-.153.038.035.05.14.012.223zm-7.712.435c.238.189.387.389.337.436-.05.059-.224-.036-.387-.188a3.878 3.878 0 00-.563-.471c-.137-.094-.262-.212-.262-.27 0-.119.337.07.875.493zm13-.282c-.163.165-.35.294-.413.294-.062 0-.212.118-.337.26-.125.152-.262.234-.313.187-.112-.105.138-.34.75-.73.6-.387.688-.387.313-.011zm-15.912.2c-.038.094-.075.059-.075-.07-.013-.13.024-.2.062-.153.038.035.05.14.013.223zm1.162-.141c0 .059-.05.117-.125.117-.063 0-.125-.058-.125-.117 0-.07.063-.118.125-.118.075 0 .125.047.125.118zm2.875.023c0-.082.063-.117.137-.07.1.047.088.106-.024.176-.188.106-.363.036-.363-.164 0-.083.05-.071.125.035.087.13.125.13.125.023zm9.913.306c-.063.271-.313.377-.25.118.024-.141.25-.447.3-.4.012.012 0 .141-.05.282zm3.587-.07c0 .07-.075.059-.188-.024-.1-.082-.187-.165-.187-.188 0-.024.087-.012.188.024.1.046.187.129.187.188zm-13.113.141c.063-.035.113 0 .113.07 0 .177-.288.083-.325-.094-.012-.082 0-.094.037-.023.026.059.113.094.175.047zm3.3-.047c.038.059.013.118-.05.118-.075 0-.137-.06-.137-.118 0-.07.025-.118.05-.118.037 0 .1.047.137.118zm2.8.2c0 .294-.012.294-.1.094-.062-.13-.087-.27-.05-.33.1-.164.163-.082.15.236zm7.638.035c-.075.13-.15.236-.175.236-.025 0-.025-.106.012-.236.038-.13.113-.235.188-.235.063 0 .05.106-.025.235zm-13.5.294c0 .095-.025.177-.05.177s-.075-.082-.125-.177c-.037-.094-.012-.176.05-.176.075 0 .125.082.125.176zm9-.058c0 .058-.025.117-.05.117-.037 0-.1-.059-.137-.117-.038-.071-.013-.118.05-.118.075 0 .137.047.137.118zm-12.8.317c-.075.07-.45-.106-.45-.211 0-.06.113-.048.25.035.125.082.225.165.2.176zm17.775.047c-.038.095-.087.036-.138-.117-.05-.2-.037-.247.063-.153.063.059.1.188.075.27zm-18.288-.011c.038.07-.012.082-.112.047-.225-.083-.262-.165-.087-.165a.24.24 0 01.2.118zm17.9.14c-.037.095-.075.06-.075-.07-.012-.13.026-.2.063-.153.037.035.05.141.012.224zm-17.087-.023c0 .06-.1.118-.212.118-.188 0-.2-.024-.038-.118.238-.14.25-.14.25 0zm15.925-.023c.038.059-.012.106-.112.106s-.15-.047-.113-.106c.037-.047.087-.094.112-.094.026 0 .076.047.113.094zm-.3.306c0 .023-.1.117-.212.2-.2.153-.213.141-.05-.047.162-.189.262-.247.262-.153zm-17.875.776c-.075.436-.1.471-.113.153-.012-.34.1-.8.175-.717.013.023-.012.27-.062.564zM18 14.64c0 .023-.15.141-.337.247l-.35.212.237-.247c.212-.236.45-.342.45-.212zm14.125.117c0 .036-.05.095-.125.13-.063.035-.125.012-.125-.047 0-.07.063-.13.125-.13.075 0 .125.024.125.047zm2.962.33c-.037.094-.075.059-.075-.07-.012-.13.026-.2.063-.154.037.036.05.142.012.224zm-17.712.494c0 .306-.075.212-.175-.223-.063-.26-.05-.306.05-.177a.891.891 0 01.125.4zm14.313-.282a.322.322 0 01-.226.117c-.087 0-.075-.047.038-.117.238-.142.288-.142.188 0zm.862.306c.038.094.025.14-.05.106a.223.223 0 01-.125-.189c0-.164.087-.13.175.083zm.288.07c-.038.094-.075.06-.075-.07-.013-.13.025-.2.062-.153.037.035.05.14.012.223zm-16.376 1.648c-.037.094-.075.059-.075-.07-.012-.13.026-.2.063-.154.038.036.05.141.012.224zm17.163-.024c-.1.06-.237.118-.313.118-.062 0-.037-.059.063-.118s.25-.117.313-.117c.075 0 .037.058-.063.117zm-.563.236c-.1.152.076.152.488 0 .175-.06.325-.071.325-.012 0 .118-.737.27-.888.176-.062-.035-.112 0-.112.083 0 .082-.038.106-.075.07-.05-.047-.012-.153.075-.259.175-.2.313-.235.188-.058zm-15.024.859c.037.094.012.235-.05.33-.075.117-.113.082-.113-.166 0-.34.063-.412.163-.164zm13.912.176c0 .118-.1.212-.225.212-.2 0-.2-.024-.013-.212.113-.118.213-.212.213-.212.012 0 .025.094.025.212zm-17.362.46c-.038.117-.063.046-.063-.142 0-.2.025-.283.063-.212a.839.839 0 010 .353zm3.975-.224c-.038.035-.138 0-.226-.083-.112-.118-.1-.13.076-.059.125.036.187.106.15.142zm16.65.164c-.038.094-.075.06-.075-.07-.013-.13.025-.2.062-.153.037.035.05.14.012.223zm.25.236c-.038.082-.063.023-.063-.142 0-.164.025-.223.063-.153a.586.586 0 010 .295zm-4.488.73c.012.164-.063.317-.188.352-.162.059-.174.047-.037-.106.125-.14.125-.176 0-.176s-.125-.035 0-.177c.2-.223.188-.223.225.106zm-11.663-.048c.038.059.013.118-.05.118-.075 0-.137-.06-.137-.118 0-.07.025-.118.05-.118.037 0 .1.048.137.118zm-4.587.412c-.037.035-.112-.024-.15-.141-.075-.165-.063-.177.063-.07.087.081.124.176.087.211zm.162.447c-.125.106-.137.094-.062-.07.038-.118.113-.177.15-.142.037.036 0 .13-.088.212zm15.925-.153c-.337.141-.537.141-.312 0a.904.904 0 01.375-.106c.125 0 .1.036-.063.106zM30 21.23c0 .094-.087.188-.188.235-.15.047-.162.024-.024-.165.174-.282.212-.294.212-.07zm-9.5.447c0 .117-.063.188-.125.153-.075-.047-.1-.13-.063-.189.05-.058.013-.105-.05-.105-.075 0-.137-.047-.137-.118 0-.059.087-.083.188-.047.1.047.187.176.187.306zm-4.563.094c.05.07-.012.259-.124.424-.113.164-.176.376-.138.47.037.094.025.153-.038.118-.062-.035-.137-.177-.175-.318-.037-.13-.037-.212 0-.176.05.035.163-.036.263-.177.1-.13.138-.27.088-.318-.038-.035-.126 0-.188.095-.075.094-.125.117-.125.047 0-.271.3-.377.438-.165zm13.325.741c-.1.094-.175.094-.287-.023-.138-.118-.125-.13.063-.07.162.07.212.023.224-.19.013-.223.026-.235.075-.058.038.118 0 .27-.075.341zm5.2-.247c-.037.094-.075.059-.075-.07-.012-.13.026-.2.063-.153.037.035.05.14.012.223zm-13.587-.023c.163.094.163.117-.025.117-.113 0-.25-.059-.288-.117-.1-.153.063-.153.313 0zm-4.938.823c.038.06.013.118-.05.118-.075 0-.137-.059-.137-.118 0-.07.025-.117.05-.117.037 0 .1.047.137.117zm11.9.73c-.037.094-.075.059-.075-.07-.012-.13.026-.2.063-.154.038.036.05.142.012.224zm-11.087.153c-.163.176-.375.141-.375-.07 0-.071.05-.095.113-.048.062.035.162 0 .2-.07.05-.06.112-.095.15-.06.037.036 0 .142-.088.248zm16.875-.224c0 .036-.087.142-.188.236-.2.2-.224.164-.112-.118.075-.177.3-.27.3-.118zm-11.288.66c-.037.093-.075.058-.075-.071-.012-.13.026-.2.063-.153.038.035.05.14.012.223zm-4.487.517c-.05.035-.15-.059-.225-.212-.15-.259-.15-.259.075-.07.125.117.188.235.15.282zm14.85-.13c-.163.165-.338.295-.388.295-.062 0 .026-.13.188-.294.163-.165.337-.295.388-.295.062 0-.026.13-.188.295zm-15.188.13c.276.294.276.306.038.188a.81.81 0 01-.35-.317c-.1-.248-.037-.224.313.13zm4.825.424c-.024.153-.05.058-.05-.2-.012-.26.013-.377.05-.271.026.118.026.33 0 .47zm5.5.058c-.037.118-.062.048-.062-.14 0-.2.025-.283.063-.213a.838.838 0 010 .354zm3.388.2c-.088.095-.188.142-.213.13-.062-.07.125-.294.25-.294.063 0 .05.07-.037.165zm-12.538.071c.038.059.013.118-.062.118s-.1.07-.05.141c.05.082.038.106-.012.059-.15-.118-.188-.436-.063-.436a.24.24 0 01.188.118zm12.888.059c-.1.094-.225.177-.275.177-.038 0-.012-.083.075-.177.087-.094.212-.177.275-.177.063 0 .038.083-.075.177zm-10.637.765a.322.322 0 01-.226.118c-.087 0-.075-.047.038-.118.238-.141.288-.141.188 0zm-.875.235c.037.06.024.118-.05.118a.295.295 0 01-.2-.118c-.038-.07-.025-.117.05-.117a.26.26 0 01.2.117zm9.675.07c.125.107-.438.036-.613-.07-.137-.094-.087-.106.188-.047.212.047.4.094.425.118zm-1.363.566c0 .023-.113.07-.25.106-.137.035-.225.011-.175-.047.063-.106.425-.153.425-.06z" fill="#FDFFFF"/><path d="M25.663 11.826c0 .318.025.448.05.26a2.319 2.319 0 000-.59c-.025-.141-.05 0-.05.33zm11.1 1.729c0 .083.112.389.237.683.2.448.237.483.237.224.013-.165-.075-.47-.187-.671-.2-.4-.3-.471-.287-.236zm-14.338 1.343c.213.2.325.447.325.682.013.412.3.871.438.67.037-.07-.013-.223-.125-.329-.138-.129-.188-.329-.163-.588.038-.27 0-.388-.112-.388-.1 0-.2-.083-.238-.177-.05-.094-.162-.176-.262-.176-.138 0-.1.094.137.306zm4.988-.083c-.25.2-.388.483-.226.483.063 0 .688-.589.688-.648 0-.118-.2-.047-.462.165zm9.912.53c.087.682.162.894.313.894.125 0 .037-.423-.225-1.059l-.163-.412.075.577zm-17.425.058c-.137.083-.125.118.037.177.288.106.313.095.313-.106 0-.2-.113-.224-.35-.07zm1.663.012c.037.059.1.118.137.118.025 0 .05-.06.05-.118 0-.071-.063-.119-.137-.119-.063 0-.088.048-.05.119zm6.687 0c0 .059.063.118.125.118.075 0 .125-.06.125-.118 0-.071-.05-.119-.125-.119-.063 0-.125.048-.125.119zm1.563.012c-.125.165-.013.248.237.153.113-.035.163-.118.125-.177-.087-.141-.262-.13-.362.024zm-2.838.565c-.125.118-.175.259-.112.341.062.106.137.06.25-.164.175-.377.137-.436-.138-.177zm13.15 1.836v1.706h-1.3c-1.475 0-1.338-.094-1.563 1.083a5.955 5.955 0 01-.312 1.094c-.113.247-.2.53-.2.636 0 .294.5-.542.5-.848.013-.14.112-.6.237-1.023l.225-.765h2.538v-1.8c0-.977-.025-1.79-.063-1.79-.037 0-.062.766-.062 1.707zM19.5 16.416c.088.094.2.141.263.106.162-.095.012-.283-.225-.283-.163 0-.163.035-.038.177zm10.762-.071c-.1.059-.112.13-.037.177.063.035.188-.012.275-.106.175-.189.038-.236-.238-.07zm-7.199.482c.037.059.1.118.137.118.025 0 .05-.059.05-.118 0-.071-.063-.119-.137-.119-.063 0-.088.048-.05.119zm3.687.013c0 .058.063.082.125.046.075-.035.125-.094.125-.13 0-.023-.05-.047-.125-.047-.063 0-.125.06-.125.13zm-15.887 2.8l1.287.07.3.942c.163.517.288 1.012.3 1.094 0 .224.4.989.463.918.037-.035-.05-.388-.2-.8a25.346 25.346 0 01-.463-1.542l-.213-.789-1.387.024-1.387.024 1.3.058zm25.662 3.188c-.075.13-.15.248-.15.283 0 .07.987.659 1.125.659.087 0 .225.082.337.177.163.164.163.223-.012.565-.1.211-.3.517-.425.694-.212.294-.25.318-.475.153a.886.886 0 00-.425-.165c-.125-.011-.075.07.125.224.55.4.825.259 1.337-.683.375-.706.363-.812-.112-1.024-.875-.377-1.163-.6-1.125-.86.05-.317 0-.329-.2-.023zm-23.275.225c0 .14.063.247.125.247.075 0 .125-.07.125-.165 0-.094-.05-.212-.125-.247-.063-.035-.125.035-.125.165zm-.575.294c-.037.094-.287.259-.562.353-.588.224-.613.424-.113 1.118.213.282.375.588.375.659 0 .341.425.282 1.175-.177l.763-.47.437.494c.238.27.563.612.725.765.15.153.275.318.275.365 0 .047.263.259.575.482.6.436.625.588.163 1.212-.138.165-.238.353-.238.412 0 .047-.112.224-.25.388-.35.424-.312.66.163.836.212.082.425.176.462.212.038.035.175.13.313.212 1.85 1.035 1.987 1.094 2.087.953.063-.083.313-.495.563-.918.6-.977.662-1.047.975-.942.137.06.525.165.85.248.562.129.6.164.537.447-.037.165-.1.565-.137.894-.063.565-.05.565.187-.235.138-.46.238-.989.238-1.177-.013-.2-.038-.259-.075-.153-.063.235-.488.188-1.438-.153-.575-.212-.587-.212-.662.012-.05.13-.138.235-.2.235-.063 0-.113.106-.113.235 0 .13-.05.236-.1.236s-.225.247-.375.541c-.25.483-.312.53-.6.47a3.519 3.519 0 01-.662-.282c-.375-.247-.613-.376-1.413-.8-.337-.176-.6-.376-.587-.447 0-.07.112-.294.237-.482.125-.2.4-.624.6-.954l.363-.6-.388-.282c-.75-.565-1.975-1.8-2.112-2.154-.088-.211-.65-.258-.775-.07-.138.2-1.075.612-1.263.541-.087-.035-.287-.282-.437-.565-.15-.282-.325-.541-.4-.576-.063-.047-.025-.13.112-.2.138-.071.438-.224.663-.354.237-.117.462-.282.487-.352.063-.2-.35-.177-.425.023zm22.575 1.506c0 .153-.038.189-1.425 1.53-1.013.965-1.063 1.047-.925 1.33.075.165.187.294.25.294.05 0 .1.082.1.176 0 .095.137.365.312.6.175.248.3.518.288.613-.025.094-.313.317-.663.494-.337.188-.775.412-.962.518-1.1.6-1.475.635-1.475.176 0-.118-.05-.224-.113-.224-.062 0-.175-.152-.262-.34-.075-.189-.275-.507-.425-.707l-.275-.353-.538.235c-.75.306-1.225.295-1.312-.047-.038-.14-.038.036-.013.389.038.353.138.882.238 1.177.162.482.175.494.187.176.013-.2-.037-.53-.112-.741-.113-.377-.088-.4.287-.553a4.12 4.12 0 01.713-.2c.175-.012.35-.083.387-.13.088-.118.75.824 1.163 1.648.2.412.45.494.7.211.087-.094.3-.247.487-.33.175-.093.538-.27.8-.411.25-.141.675-.365.938-.506.637-.33.712-.424.562-.6-.075-.082-.25-.353-.4-.6-.15-.236-.375-.624-.512-.848l-.25-.423.75-.67c.425-.366 1-.942 1.275-1.284.5-.588.525-.6.812-.423.363.223.55.106.213-.141-.288-.2-.8-.236-.8-.036zm-12.375 1.565c.087.094.212.177.275.177.075 0 .063-.083-.025-.177-.087-.095-.212-.177-.275-.177-.075 0-.063.082.025.177zm4.038 0c-.276.188-1.563.389-2.138.353-.188-.012-.587-.059-.9-.094l-.563-.07.5.164c1 .318 3.175.083 3.363-.377.087-.188.063-.188-.262.024zm-3.663 1.318c.65.294 2.487.353 3.2.094.8-.282.6-.34-.325-.094-.763.2-1.5.165-3-.141-.225-.047-.2-.012.125.141zm5.025 3.801c0 .165.025.224.062.141a.589.589 0 000-.295c-.037-.07-.062-.011-.062.154zm-6.512.411c-.013.6 1.1 2.096 1.675 2.225.175.047.3.118.262.165-.075.118.263.165 1.3.176.6.012.963-.047 1.388-.247.55-.235 1.362-.918 1.35-1.118 0-.047.112-.224.262-.4.138-.165.25-.436.25-.612 0-.247-.05-.2-.3.282-.15.318-.375.66-.487.754-.125.082-.213.223-.213.294 0 .141-.6.518-1.187.73-.938.353-2.375.082-3.063-.577-.65-.636-.862-.965-1.175-1.848-.025-.094-.062-.024-.062.177zM19.7 41.833c.038.095.238.212.45.283.538.176.95.577 1.3 1.248.163.317.3.494.3.364 0-.259-.412-.93-.812-1.282-.375-.354-1.313-.813-1.238-.613zm-1.863.73c-.162.141-.087.271.163.271.137 0 .25-.083.25-.177 0-.177-.262-.248-.413-.094zm1.513.777c-.037.223-.025.294.05.223.075-.07.1-.211.075-.329-.037-.165-.062-.141-.125.106zm2.413 1.141c-.013.53.287.942.687.942.363 0 .375-.118.05-.47l-.25-.272v.271c0 .424-.262.118-.375-.435l-.1-.447-.012.411zm9.487 4.331c0 .247.575.494 1.325.588.712.082.75.094 1.025.612.313.577.65.965.65.73 0-.082-.05-.141-.112-.141-.063 0-.213-.236-.338-.542-.275-.67-.575-.87-1.35-.87-.463 0-.7-.06-.913-.26-.162-.141-.287-.188-.287-.117zm-10.375.258c-.1.06-.125.118-.063.118.075 0 .213-.059.313-.118.1-.06.137-.119.062-.119-.062 0-.212.06-.312.119zm-5 1.283c-.075.142-.088.248-.013.248.125 0 .3-.353.213-.436-.025-.035-.113.059-.2.188zm-.475.6c-.238.354-.175.424.1.118.275-.294.3-.353.15-.353-.05 0-.163.106-.25.235z" fill="#FDFFFF"/></svg>