<svg width="50" height="66" fill="none" xmlns="http://www.w3.org/2000/svg"><path d="M0 27.164C0 48.193.037 53.61.163 54.429c.387 2.344 1.575 3.654 4.025 4.41.687.214 1.425.24 8.375.303 6.962.063 7.687.088 8.312.302.613.214 1.6.794 1.938 1.146.837.87 1.8 2.848 2 4.12.1.618.274.618.375 0 .15-.982.875-2.67 1.487-3.49.712-.944 1.337-1.373 2.637-1.789.863-.277.963-.29 8.1-.29 6.938 0 7.276-.012 8.188-.264 1.688-.454 2.175-.769 3.45-2.155.113-.113.2-.277.2-.352 0-.076.1-.315.212-.542.525-1.033.538-1.109.538-28.664V.932H0v26.232zM49.5 1.562c.075.113.125 7.584.125 19.743v19.567H.375V21.305c0-10.747.05-19.617.1-19.693.05-.088.2-.176.338-.214.137-.038 11.124-.05 24.412-.038 21.325.013 24.175.038 24.275.202zm.125 40.507v1.071H.375v-2.142h49.25v1.071zM18.75 44.778c-.2.39-.288.227-.1-.189.088-.189.175-.29.2-.214.025.075-.025.264-.1.403zm1.438-.277c-.038.038-.138 0-.226-.088-.112-.126-.1-.139.076-.063.125.037.187.113.15.15zm.524-.151c-.037.037-.15.05-.237.012-.1-.038-.063-.075.075-.075.137-.013.212.025.162.063zm-2.3.315c-.075.075-.112.226-.075.315.038.1 0 .176-.075.176s-.137-.025-.137-.05c0-.026-.038-.152-.087-.278-.05-.138-.038-.189.062-.126.075.038.162.026.212-.05.038-.063.113-.126.163-.126.037 0 .012.063-.063.139zm2.3-.063c-.037.037-.15.05-.237.012-.1-.038-.063-.075.075-.075.137-.013.212.025.162.063zm1.163.05c-.1.063-.238.126-.313.126-.062 0-.037-.063.063-.126s.25-.126.313-.126c.075 0 .037.063-.063.126zm-2.625.05c0 .026-.087.089-.2.126-.1.038-.15.026-.113-.05.075-.126.313-.176.313-.076zm2.712.353c-.037.101-.075.063-.075-.075-.012-.139.026-.215.063-.164.038.038.05.151.012.24zm-.274.479c.312.315.625.504.812.504.2 0 .25.038.163.1-.1.064.05.165.4.265.387.114.637.29.862.63.175.252.325.53.325.618 0 .088.063.15.15.15.075 0 .113.039.075.076-.05.038-.2.013-.338-.063-.412-.226-.2.152.238.416.4.227.738.706.5.706-.063 0-.125-.05-.125-.114 0-.063-.087-.15-.188-.189-.175-.063-.175-.05 0 .202.1.164.188.403.188.554 0 .164.113.316.288.366.237.088.212.113-.175.151-.4.05-.45.088-.388.328.05.226.037.252-.113.138-.1-.075-.412-.176-.712-.214-.313-.038-.612-.164-.712-.302-.15-.19-.175-.202-.188-.026 0 .24.5.492 1.012.492.213 0 .4.075.438.189.113.29.413.227.5-.114.063-.252.163-.302.713-.365a6.684 6.684 0 001.25-.277c.424-.139.987-.202 1.875-.19.7.014 1.524-.05 1.837-.125.413-.1.712-.1 1.188.013.524.125 1.45.604 1.687.869.038.05.3.201.6.353.65.34 1.2.352 1.913.037.3-.126.687-.277.862-.327.3-.076.3-.076-.063.227-.45.378-.362.58.1.214.325-.252 1.138-.353 1.263-.139.05.063-.037.088-.162.05-.238-.062-.763.215-1.163.618-.275.277-.087.29.438.038l.4-.202-.338.29c-.2.164-.35.353-.35.416 0 .151-.875.44-1.337.44-.275 0-.313.026-.163.127.138.088.063.126-.3.126-.475 0-.488 0-.263.252.263.302.175.315-.3.075-.187-.1-.637-.226-.987-.277-.362-.038-.65-.126-.65-.164 0-.05-.163-.176-.362-.302a1.787 1.787 0 01-.563-.617l-.212-.416.087.44c.063.404.063.43-.125.24-.113-.1-.238-.416-.287-.693-.076-.542-.463-1.058-.8-1.058-.113 0-.276-.088-.363-.19-.175-.213-.375-.251-.375-.075 0 .063.1.151.225.19.25.088.775 1.133.775 1.536 0 .53.425 1.45.712 1.512.488.126.526-.063.088-.541-.488-.517-.5-.731-.012-.24.187.177.287.328.237.328-.05.012.05.088.225.189.175.1.237.176.163.189-.088 0-.163.063-.163.138 0 .101.188.114.563.063.512-.088.587-.063.887.265.25.277.3.29.237.1-.037-.138-.037-.2.013-.15.05.05.188 0 .313-.114.175-.151.262-.164.45-.05.2.126.2.126-.038.063-.3-.076-.625.227-.475.453.05.101.037.114-.05.063-.288-.176-.137.24.225.643.288.315.475.416.813.416.412 0 .437.025.437.39v.404l-.587-.076c-.538-.063-.575-.05-.35.113a.966.966 0 00.524.177c.2 0 .3.088.363.315.05.176.05.365 0 .403-.188.189-1.075-.277-1.525-.806-.7-.82-.987-.933-2.287-.908-1.313.013-1.838-.126-2.663-.768-.6-.454-1.513-.769-2.2-.744-.188 0-.25.038-.15.076.1.025.275.088.375.126.25.075-.525.453-1.4.68-1.413.366-4.938.114-4.763-.34.038-.1 0-.176-.062-.176-.075 0-.162.113-.212.24-.063.226-.175.239-1.726.175-1.55-.063-1.674-.05-2.087.202-.325.214-.35.265-.137.202l.3-.088-.276.378c-.137.214-.262.49-.262.617a.929.929 0 01-.15.44c-.175.215-.85.391-.85.215 0-.1-.162-.088-.588.063-.162.05-.387.038-.5-.038-.125-.075-.15-.138-.062-.138.075 0 .15-.088.15-.19 0-.1.063-.188.15-.188.162 0 1.088-.983 1.512-1.6.175-.278.388-.416.588-.429.488-.013 1.188-.302 1.188-.491 0-.227.762-.68.95-.555.1.05 0 .164-.276.315-.237.126-.35.227-.262.24.225 0 1.15-.542 1.15-.68 0-.064-.087-.038-.188.05-.112.088-.237.126-.274.075-.125-.113-.113-.945.012-1.978.063-.466.063-1.21.025-1.638l-.087-.806-1.075-.038c-.638-.025-1.125.013-1.226.1-.287.24-.687-.113-.687-.591 0-.378.063-.441.813-.807.45-.214.85-.44.887-.504.15-.252 1.063-.743 1.387-.756l.35-.012-.312-.088-.313-.089.313-.176c.425-.24.425-.24.512.189.088.378.088.378.1.038.013-.265.088-.353.363-.39.762-.14 1.325.037 1.837.541zm-4.363-.113a.239.239 0 01-.05.264c-.075.076-.137.025-.188-.138-.062-.278.088-.366.238-.126zm.863-.013a.316.316 0 01-.226.126c-.087 0-.075-.05.038-.126.238-.151.288-.151.188 0zm4.687.05c0 .139-.238.19-.313.076-.037-.063.013-.126.113-.126.113 0 .2.025.2.05zm.788.038a.937.937 0 01-.375 0c-.125-.038-.05-.063.15-.063.212 0 .3.025.225.063zm.125.479c-.1.277-.276.227-.2-.063.037-.139.112-.214.174-.189.05.038.075.151.026.252zm-.576.013c-.037.037-.15.05-.237.012-.1-.038-.063-.075.075-.075.137-.013.212.025.162.063zm.838.504c.075.189.05.189-.137.037-.125-.088-.25-.189-.276-.201-.024-.025.038-.038.138-.038a.31.31 0 01.275.202zm.45.05c0 .063-.025.126-.05.126-.037 0-.1-.063-.137-.126-.038-.076-.013-.126.05-.126.075 0 .137.05.137.126zm-8.875.302c0 .026-.088.114-.188.202-.162.139-.175.126-.112-.05.063-.177.3-.29.3-.152zm8.863.441c-.026.076-.125-.025-.213-.214-.137-.315-.137-.315.05-.126.113.114.188.265.163.34zm.325.013c.037.063.012.126-.05.126-.076 0-.138-.063-.138-.126 0-.076.025-.126.05-.126.037 0 .1.05.137.126zm-9.188.176c0 .038-.05.101-.125.139-.063.038-.125.013-.125-.05 0-.076.063-.14.125-.14.075 0 .125.026.125.051zm-.488.492c-.125.113-.137.1-.062-.076.038-.126.113-.189.15-.151.037.038 0 .139-.088.227zm.463.126c.1.126.075.163-.112.163-.238 0-.3-.088-.15-.239.1-.113.112-.113.262.076zm3.025.592c0 .063-.05.126-.125.126-.063 0-.125-.063-.125-.126 0-.076.063-.126.125-.126.075 0 .125.05.125.126zm6.875.126c0 .063-.025.126-.05.126-.037 0-.1-.063-.137-.126-.038-.076-.013-.126.05-.126.075 0 .137.05.137.126zm1 .693c-.238.088-.525.164-.625.164-.1 0 .012-.076.25-.164.238-.088.525-.164.625-.164.1 0-.012.076-.25.164zm6.313.063c.062.113.612.39 1.062.542.138.05.138.075-.038.075-.125.013-.35-.05-.5-.126-.425-.227-.887-.617-.737-.617.075 0 .175.05.212.126zm.95.227a.339.339 0 01-.288-.076c-.1-.1-.05-.113.163-.063.162.05.224.1.125.139zm3.275.113a.655.655 0 01-.313 0c-.087-.038-.025-.063.15-.063s.237.025.163.063zm.587.038c0 .063-.025.126-.05.126-.038 0-.1-.063-.138-.126-.037-.076-.012-.126.05-.126.075 0 .138.05.138.126zm.462.453c-.037.038-.15.05-.237.013-.1-.038-.063-.076.075-.076.138-.012.213.026.163.063zm-7 .996c0 .1-.05.151-.112.113-.063-.038-.075-.126-.038-.189.113-.164.15-.138.15.076zm7.038-.139c0 .025-.087.076-.188.126-.1.038-.187.013-.187-.05 0-.076.087-.126.188-.126.1 0 .187.025.187.05zm-19.788.731c-.037.088-.062.025-.062-.151 0-.177.025-.24.063-.164a.67.67 0 010 .315zm18.976.139c.075.05.012.088-.126.063-.15-.026-.237.025-.212.126.012.1-.025.138-.1.088-.087-.05-.087-.164.013-.328.075-.151.175-.214.212-.151.05.05.15.139.212.202zm-19.963.428a.884.884 0 01-.163.164c-.024 0-.062-.076-.1-.164-.037-.088.038-.164.175-.164.163 0 .188.038.088.164zm15.15.113c0 .026-.087.05-.188.05-.1 0-.187-.05-.187-.125 0-.063.087-.088.188-.05.1.05.187.1.187.125zm4.413.265a.655.655 0 01-.313 0c-.087-.038-.025-.063.15-.063s.237.025.163.063zm-1.038.29c-.1.063-.237.126-.313.126-.062 0-.037-.063.063-.126s.25-.126.313-.126c.075 0 .037.063-.063.126zm-20.363.416c-.125.113-.137.1-.062-.076.038-.126.113-.19.15-.151.037.038 0 .138-.088.227zm-.2.214c.038.063.013.126-.05.126-.075 0-.137-.063-.137-.126 0-.076.025-.126.05-.126.037 0 .1.05.137.126zm12.4-.05c-.037.037-.15.05-.237.012-.1-.038-.063-.076.075-.076.137-.012.212.026.162.063zm-26.937.365c.037.163.012.277-.037.24-.113-.064-.163-.555-.063-.555.025 0 .075.138.1.315zm27.088-.114c.125.114-.563.038-.738-.075-.137-.088-.063-.101.25-.05.238.05.462.1.488.125zm-.813.114c.137.1.2.189.125.189-.063 0-.225-.088-.35-.19-.137-.1-.2-.188-.125-.188.063 0 .225.088.35.189zm1.575.063c.163.1.163.126-.025.126-.113 0-.25-.063-.288-.126-.1-.164.063-.164.313 0zm6.188.352c-.076.101-.438-.15-.438-.302 0-.139.05-.126.225.038.125.126.225.24.212.264zm-20.6.177c-.038.1-.075.063-.075-.076-.013-.138.024-.214.062-.163.038.037.05.15.013.239zm10.95-.063a.937.937 0 01-.375 0c-.125-.038-.05-.063.15-.063.212 0 .3.025.225.063zm-10.413.164c0 .063-.063.126-.137.126-.063 0-.088-.063-.05-.126.037-.076.1-.126.137-.126.025 0 .05.05.05.126zm7.587.075c-.037.038-.15.05-.237.013-.1-.038-.063-.076.075-.076.137-.012.212.026.162.063zm2.625 0c-.037.038-.15.05-.237.013-.1-.038-.063-.076.075-.076.137-.012.212.026.162.063zm4.788.126c0 .026-.087.05-.188.05-.1 0-.187-.05-.187-.125 0-.063.087-.089.188-.05.1.05.187.1.187.125zm6.888.366c.062-.05.112-.013.112.05 0 .076-.087.139-.188.139-.124 0-.187-.114-.174-.353.025-.29.025-.303.075-.05.024.15.112.252.175.214zm-19.775.038c-.013.188-.026.188-.075-.013-.026-.114-.113-.177-.188-.139-.088.05-.1.026-.05-.063.125-.189.325-.05.313.215zm15.262-.227c.138.088.063.1-.25.05-.538-.1-.637-.176-.238-.176.163 0 .388.063.488.126zm3.875.201c.175.454.163.542-.125.467-.175-.05-.25-.177-.25-.429 0-.453.212-.479.375-.038zm-22.438.555c-.037.063-.137.126-.2.126-.075 0-.087-.063-.05-.126a.255.255 0 01.2-.126c.075 0 .088.05.05.126zm-12.1.277c-.037.1-.075.063-.075-.076-.012-.138.026-.214.063-.164.038.038.05.152.012.24zm32.213-.164c.038.063-.012.139-.112.176-.113.05-.15.013-.1-.113.075-.202.124-.214.212-.063zm2.238.1c.037.064.1.29.15.517.075.391.075.404-.226.265-.212-.1-.3-.24-.3-.504 0-.34.238-.504.376-.277zm.925-.012c-.038.038-.15.05-.238.013-.1-.038-.063-.076.075-.076.138-.012.213.025.163.063zm11.687.202c-.087.088-.15.1-.15.025 0-.176.15-.328.237-.24.026.038-.012.14-.087.215zm-34.287-.076c.437.088.475.19.187.479-.213.227-1.175.277-1.175.076 0-.139.387-.63.512-.63.05 0 .263.037.476.075zm1.387.265c0 .164-.838.617-.95.504-.025-.025-.013-.214.025-.416.063-.34.113-.365.5-.328.263.038.425.126.425.24zm-13.75.113c0 .101-.05.151-.125.114-.063-.038-.125-.126-.125-.202 0-.063.063-.113.125-.113.075 0 .125.088.125.201zm46.5-.025c0 .038-.05.1-.125.139-.063.037-.125.012-.125-.05 0-.076.063-.14.125-.14.075 0 .125.026.125.051zm-13.538.151c-.037.038-.15.05-.237.013-.1-.038-.063-.076.075-.076.138-.012.213.025.163.063zM16 57.05c0 .025-.088.088-.2.126-.1.038-.15.025-.113-.05.075-.126.313-.177.313-.076zm19.288.139c.037.075-.038.138-.15.138-.125 0-.225-.063-.225-.138 0-.089.075-.152.162-.152.087 0 .188.063.212.152zm12.275.315a.316.316 0 01-.226.126c-.087 0-.075-.05.038-.126.237-.152.288-.152.188 0zM3.5 57.882c0 .063-.05.126-.125.126-.063 0-.125-.063-.125-.126 0-.076.063-.126.125-.126.075 0 .125.05.125.126zm26.563.743c-.038.076-.175.126-.288.126-.188-.013-.188-.025.013-.076.112-.025.212-.113.212-.189 0-.075.038-.113.075-.063.038.038.038.126-.012.202zm-1 .264c-.038.063-.175.127-.288.114-.175 0-.162-.025.038-.114.337-.138.337-.138.25 0zm-7.85.076c-.038.038-.15.05-.238.013-.1-.038-.063-.076.075-.076.137-.013.212.025.162.063zm1.474.58c.175.075.313.189.313.252s-.163.025-.375-.088c-.563-.29-.512-.429.063-.164zm4.813.1c-.25.164-.625.152-.625-.012 0-.063.05-.088.125-.05.063.037.225.025.337-.05.276-.152.413-.051.163.112zm-1.225.908a.638.638 0 00-.15.403c0 .126-.038.214-.075.164-.125-.126.063-.718.225-.718.113 0 .113.037 0 .15zM24 60.906c0 .138-.025.252-.05.252s-.075-.114-.113-.252c-.037-.14-.012-.252.05-.252.063 0 .113.113.113.252zm.788.693c-.038.113-.1.176-.125.138-.038-.038-.026-.113.024-.189.113-.202.188-.164.1.05zm.837.314c0 .063-.063.126-.137.126-.063 0-.088-.063-.05-.126.037-.075.1-.126.137-.126.025 0 .05.05.05.126zm-1 .126c0 .063-.025.126-.05.126-.037 0-.1-.063-.137-.126-.038-.075-.013-.126.05-.126.075 0 .137.05.137.126zm.5 1.071c0 .101-.05.19-.125.19-.063 0-.125-.089-.125-.19 0-.1.063-.189.125-.189.075 0 .125.089.125.19z" fill="#10215B"/><path d="M23.862 5.278v.882c.013.416-.025.819-.075.895-.062.075-.437.201-.85.277-1.375.252-2 .403-2.287.554-.238.126-.325.101-.587-.15-.35-.329-.413-.202-.113.226.238.34.363.34 1.025.025.275-.138.637-.252.8-.252.162 0 .487-.05.725-.113.237-.063.7-.151 1.037-.202l.588-.076V5.341h1.625v1.991l.912.151c.488.076 1.1.177 1.338.202.412.038.4.038-.125-.151a7.391 7.391 0 00-1.213-.265L26 7.193V5.227l-1.063-.038c-.65-.025-1.062.013-1.075.089zm-5.487.819c-.238.138-.488.29-.563.353-.062.05-.312.201-.524.315-.226.113-.576.302-.788.416-.2.1-.4.252-.438.315-.05.063-.137.088-.2.05-.225-.151-.112.53.138.756.275.252.325.177.125-.201-.175-.315-.063-.429 1.15-1.11.538-.29 1-.58 1.038-.655.05-.063.212-.113.375-.113.225 0 .375.126.562.491.225.467.5.77.5.58 0-.126-.8-1.45-.875-1.437-.038 0-.262.114-.5.24zm12.45-.063c-.113.114-.2.29-.2.378a.36.36 0 01-.163.278c-.087.05-.237.29-.325.504-.1.226-.212.415-.274.415-.063 0-.113.089-.113.19 0 .1-.113.188-.25.188s-.25-.063-.25-.126c0-.075-.188-.126-.4-.126l-.413.013.438.24c.688.377.913.327 1.238-.29.75-1.399.85-1.538 1.087-1.5.125.025.325.126.425.202.1.088.55.365 1 .605 1.45.768 1.375.693 1.1 1.222-.125.252-.375.68-.538.957-.5.794-.5.807-.05 1.197.9.794 1.075.97 1.15 1.172.038.113.163.214.276.214.1 0 .187.076.187.177 0 .1.175.365.388.592.412.453.412.453 1.6-.277.224-.139.437-.24.45-.215.012.026.237.366.487.756l.45.731-.413.214c-.237.126-.625.34-.875.466-.512.278-.55.391-.25.77.188.239.188.239.113-.076-.063-.278 0-.366.4-.593.25-.15.612-.34.8-.428.45-.202.5-.479.15-.933-.162-.201-.3-.428-.3-.49-.013-.177-.45-.694-.6-.694-.075 0-.15.038-.175.088-.013.063-.375.265-.775.48-.563.289-.75.34-.8.2-.1-.289-1.65-1.914-2.2-2.318-.238-.176-.225-.214.3-1.171.288-.542.6-1.034.675-1.084.2-.138-.262-.567-.875-.806-.3-.114-.55-.265-.55-.315 0-.063-.2-.19-.45-.303-.237-.1-.412-.239-.362-.315.037-.063 0-.088-.113-.05-.1.038-.313-.025-.488-.139-.287-.189-.325-.189-.512 0zM16.25 8.68c0 .05.162.366.35.68l.35.58-.575.504c-.313.277-.788.756-1.038 1.071-1.062 1.285-.887 1.184-1.425.932a7.88 7.88 0 01-.812-.453c-.175-.126-.388-.227-.463-.227-.075 0-.275.277-.45.617-.162.34-.362.656-.437.706-.213.126-.15.693.075.693.112 0 .35.1.525.227.187.126.437.277.562.315.363.138.375.403.038 1.07-.175.341-.288.643-.263.681.025.025-.087.53-.25 1.109-.162.58-.275 1.096-.237 1.121.112.126.275-.264.425-1.046.137-.718.487-1.763.8-2.456.1-.227.1-.315-.013-.353a4.72 4.72 0 01-.562-.328 10.774 10.774 0 00-.75-.453l-.338-.177.238-.353c.137-.189.25-.39.25-.453a1.52 1.52 0 01.25-.39l.237-.278.475.265c.9.529 1.138.617 1.338.541.112-.037.2-.163.2-.252 0-.1.55-.743 1.237-1.423l1.225-1.222-.225-.29c-.137-.164-.237-.366-.237-.454 0-.075-.113-.252-.25-.378-.138-.126-.25-.189-.25-.126zm5.938.87c-.888.264-1.838.63-2.188.844-.1.063-.413.226-.675.378-.275.15-.563.327-.65.415a3.68 3.68 0 01-.425.328c-.462.315-2 1.928-2 2.104 0 .088-.038.164-.087.164-.263 0-1.1 1.613-1.638 3.15-.313.882-.338 1.083-.338 3.213 0 2.066.026 2.343.3 3.15.538 1.6 1.063 2.57 2 3.767.613.768 2.038 2.041 2.763 2.457.738.428 1.738.882 2.35 1.083.637.202.65.215.662.731.013.53.013.53.138-.164.075-.378.188-.73.263-.78.1-.051.05-.165-.125-.328-.238-.202-.263-.328-.213-.908.05-.63.175-1.045.175-.592 0 .114.05.24.125.277.175.114.038-2.217-.212-3.3l-.2-.895-.388.05c-.287.05-.475-.012-.762-.264-.238-.215-.325-.353-.226-.391.1-.05.038-.176-.2-.378-.2-.164-.35-.403-.337-.517 0-.15-.088-.239-.262-.264-.313-.05-.4-.466-.138-.554.088-.038-.025-.164-.25-.29-.375-.227-.45-.366-.438-.794.013-.076-.037-.151-.1-.151-.05 0-.45-.34-.887-.756-.425-.416-.938-.832-1.125-.92-.363-.151-.463-.34-.2-.34.188 0 1.475 1.008 1.475 1.146 0 .063.087.114.188.114.1 0 .187-.038.187-.076 0-.151-1.275-1.298-1.512-1.373-.138-.05-.213-.139-.163-.202.038-.063.213-.012.4.114.563.39.65.428.65.252 0-.089-.188-.29-.413-.454-.25-.176-.325-.277-.2-.277.113 0 .276.088.363.189.075.1.275.214.413.264.15.038.4.202.55.34.162.14.325.227.362.177.125-.126-.037-.29-.762-.781-.375-.252-.688-.504-.688-.58 0-.176.05-.151.813.454.4.302.774.529.825.491.137-.075-.15-.554-.338-.554-.075 0-.238-.114-.363-.252-.125-.139-.3-.252-.4-.252-.087 0-.162-.063-.162-.139 0-.075.262.013.575.202.5.302.563.315.538.1a.57.57 0 01.05-.365c.05-.088-.026-.176-.213-.227-.188-.05-.425-.277-.587-.58-.163-.276-.35-.503-.438-.503-.1 0-.225-.114-.3-.252-.075-.139-.188-.252-.262-.252-.063 0-.238-.114-.388-.252-.238-.214-.238-.252-.063-.252.113 0 .213.05.213.1 0 .051.15.19.35.303.188.114.525.39.75.617.225.215.438.366.487.316.05-.038-.024-.19-.162-.328a9.235 9.235 0 01-.375-.403c-.238-.265-.675-.605-.788-.605-.062 0-.175-.088-.262-.19-.262-.314.087-.226.575.14.325.252.425.29.425.138 0-.113-.188-.34-.4-.516-.225-.177-.363-.328-.313-.328.2 0 .65.29.813.53.087.125.237.226.325.226.087 0 .287.126.438.264l.287.278-.087-.277c-.063-.19-.025-.265.112-.265.113 0 .2-.05.2-.114 0-.138-1.113-1.146-1.262-1.146-.063 0-.113-.063-.113-.126 0-.202.238-.139.462.126.125.139.263.252.313.252.1 0 .425.34.975.995.137.164.25.441.25.618 0 .24.038.277.163.176.224-.189.612.277.637.756.012.466.188.454.275-.012.05-.215.175-.404.288-.429.175-.05.175-.063-.026-.075-.125-.013-.287-.215-.412-.517-.113-.277-.25-.504-.313-.504-.062 0-.112-.088-.112-.202 0-.176-.675-1.146-.938-1.335-.062-.05-.087-.126-.05-.164.088-.088.988.819.988 1.008 0 .063.113.264.25.44.225.29.25.29.25.064 0-.139-.113-.39-.25-.567-.137-.176-.25-.378-.25-.454 0-.075-.113-.239-.25-.365-.262-.24-.325-.441-.137-.441.062 0 .237.214.387.466.175.29.313.416.337.315.038-.088-.087-.39-.262-.655-.363-.554-.287-.68.113-.176.137.176.4.478.6.68.187.214.337.466.337.567 0 .1.063.189.125.189.075 0 .125-.025.125-.05 0-.101-.538-1.008-.837-1.412-.163-.214-.288-.44-.288-.504 0-.15.637.58.9 1.034.113.201.263.378.338.403.224.075-.075-.58-.5-1.122-.413-.529-.325-.68.1-.214.35.39 1.037 1.852 1.037 2.205 0 .164.075.29.175.29.212 0 .325.277.325.781 0 .29.05.366.188.302.15-.05.187.05.187.555 0 .365.063.63.137.63.088 0 .1-.139.05-.378-.05-.214-.037-.378.025-.378.125 0 .113-1.588-.024-3.692-.05-.756-.038-1.222.037-1.222.063 0 .15.088.2.189.05.139.262.189.825.189s.775-.05.825-.189c.05-.1.137-.189.2-.189.113 0 .1 1.525-.05 4.057-.025.479 0 .857.05.857.063 0 .075.214.038.466-.063.353-.05.428.05.29.075-.101.137-.428.137-.718 0-.429.038-.517.188-.466.137.063.187-.026.187-.34 0-.48.1-.669.375-.77.113-.037.2-.226.225-.415.063-.756 1.25-2.684 1.45-2.356.037.075-.025.201-.175.277-.137.076-.25.189-.25.265 0 .063-.113.239-.25.39-.137.151-.25.416-.238.592v.328l.138-.29c.075-.151.188-.277.25-.277.05 0 .1-.076.1-.164.012-.176.613-.894.7-.819.025.038-.1.29-.287.555-.526.756-.663 1.033-.65 1.272 0 .164.05.139.15-.1.087-.177.375-.593.65-.946.262-.34.512-.642.524-.667.026-.026.076-.013.113.025.05.05-.063.277-.238.504-.2.264-.274.479-.212.592.075.113.113.1.175-.088.1-.34.575-.769.575-.542 0 .088-.087.252-.188.365-.575.605-.987 1.525-.687 1.525.288 0-.05.958-.375 1.058-.137.025-.113.05.05.063.162.013.212.088.162.265a.413.413 0 00.113.39c.137.114.175.076.175-.189 0-.44.337-.957.575-.869.113.038.175-.025.175-.176 0-.139.113-.353.25-.48.137-.125.25-.276.25-.327 0-.126.613-.743.738-.743.05 0 .2-.113.325-.252.237-.265.437-.328.437-.151 0 .063-.25.29-.563.504-.587.415-.837.793-.587.882.087.025.15.138.15.24 0 .175.025.175.225 0 .125-.127.3-.215.375-.215.075 0 .212-.1.3-.227.15-.201.638-.53.788-.53.187 0 .012.215-.313.404-.212.114-.375.303-.375.416 0 .164.087.138.462-.126.525-.353.775-.416.538-.126-.087.1-.212.189-.263.189-.162 0-1.237 1.096-1.237 1.26 0 .076.375-.177.837-.567.463-.378.913-.693 1.013-.693.1 0-.125.24-.5.53-.813.63-1.025.856-1.138 1.146-.05.126-.262.302-.474.39-.213.088-.338.202-.263.252.063.038.1.19.063.328-.063.252.137.353.274.138.075-.138.838-.541.9-.478.013.025-.237.226-.575.44-.612.404-.9.782-.587.782.087 0 .262-.114.387-.252.125-.139.275-.252.338-.252s.2-.088.3-.19c.213-.2.425-.251.425-.087 0 .05-.188.189-.4.315-.525.29-1.15.831-1.063.932.038.038.226-.05.413-.202.188-.138.4-.264.488-.264.075 0 .25-.114.375-.252.124-.139.312-.252.424-.252.125 0 .05.126-.237.378-.425.365-.462.705-.038.365.363-.277.788-.504.788-.39 0 .05-.225.226-.5.403-.575.353-1.363 1.26-1.087 1.26.087 0 .35-.202.587-.441.388-.403 1-.82 1.188-.82.037 0 .062.051.062.127 0 .063-.087.126-.188.126-.1 0-.312.126-.462.277-.163.164-.613.58-1 .945-.375.353-.725.781-.775.945-.037.164-.25.416-.475.567-.225.164-.338.29-.25.29.3 0 .162.479-.175.554-.225.063-.3.151-.25.302.05.139-.063.303-.338.492-.212.164-.325.29-.237.29.287 0 .15.327-.238.554-.237.139-.512.202-.724.164-.338-.076-.338-.076-.55 1.146-.238 1.412-.35 3.075-.2 2.974.062-.038.112-.151.112-.252 0-.1.063-.177.137-.177.226 0 .05 1.361-.212 1.651-.175.189-.188.277-.075.353.087.05.2.34.262.655l.113.554.012-.478c.013-.252.05-.454.113-.441.225.063 1.688-.542 2.775-1.172.962-.555 2.688-2.18 2.55-2.42-.05-.075-.05-.113 0-.062.1.088.575-.265.575-.441 0-.05.063-.164.125-.252.612-.731 1.1-1.777 1.563-3.352.274-.932.312-1.297.312-2.898-.013-1.486-.05-1.978-.25-2.532a5.576 5.576 0 01-.25-.907c0-.265-.75-1.79-.9-1.84-.05-.025-.1-.126-.1-.227 0-.226-.388-.68-.525-.604-.05.037-.063-.013-.025-.114.15-.416-2.663-3.112-3.25-3.112-.1 0-.2-.05-.225-.1-.063-.165-1.35-.807-1.85-.92-.238-.05-.75-.177-1.125-.29-1.063-.303-3.925-.252-5.063.1zm4.65.15c-.038.039-.15.051-.238.013-.1-.037-.063-.075.075-.075.137-.013.212.025.162.063zm-4.175.14a.655.655 0 01-.313 0c-.088-.038-.025-.064.15-.064s.238.026.163.063zm5.312.125a1.275 1.275 0 01-.438 0c-.124-.037-.024-.063.213-.063.238 0 .337.026.225.063zm-7.225.34c0 .026-.087.089-.2.127-.1.037-.15.025-.113-.05.075-.127.313-.177.313-.076zm8.925.441c.05.063-.038.089-.175.05-.288-.075-.325-.163-.075-.163.1 0 .212.05.25.114zm-9.55.089c0 .1-.238.163-.3.075-.037-.063.012-.113.113-.113.1 0 .187.025.187.038zm-.6.327c-.087.088-.15.101-.15.025 0-.176.15-.327.238-.239.024.038-.013.139-.088.214zm6.4.038c-.05.1-.137.19-.2.19-.075 0-.063-.077.025-.19.087-.1.175-.189.2-.189.025 0 .012.088-.025.19zm-1.55.063c-.1.063-.238.126-.313.126-.062 0-.037-.063.063-.126s.25-.126.313-.126c.075 0 .037.063-.063.126zm2.475.05c-.088.101-.213.152-.275.114-.05-.038-.025-.114.063-.176.274-.164.387-.14.212.063zm-.513.026c-.037.037-.15.05-.237.012-.1-.038-.063-.075.075-.075.137-.013.212.025.162.063zm-7.55.302c-.112.139-.237.214-.262.189-.075-.076.225-.44.363-.44.062 0 .012.112-.1.251zm4.3.025c-.037.101-.075.063-.075-.075-.012-.139.026-.214.063-.164.038.038.05.151.012.24zm1.663-.226c0 .037-.05.1-.125.138-.063.038-.125.013-.125-.05 0-.076.063-.139.125-.139.075 0 .125.025.125.05zm6.413.34c-.113.113-.15.088-.125-.114.012-.176.062-.226.137-.15.087.087.075.175-.012.264zm-7.413-.139c0 .063-.063.126-.137.126-.063 0-.088-.063-.05-.126.037-.076.1-.126.137-.126.025 0 .05.05.05.126zm1.9.151c-.087.088-.15.101-.15.025 0-.176.15-.327.238-.239.024.038-.013.139-.088.214zm.863.076c0 .176.024.176.124-.038s.113-.214.05.063c-.024.176-.062.428-.075.567-.012.164-.05.126-.112-.126a5.368 5.368 0 00-.188-.617c-.075-.177-.062-.215.038-.152.087.05.15.19.162.303zm-1.8-.025c-.038.037-.15.05-.238.012-.1-.038-.063-.075.075-.075.137-.013.212.025.162.063zm-1.376.327c-.037.101-.075.063-.075-.075-.012-.139.026-.215.063-.164.038.038.05.151.012.24zm4.863.252c-.113.151-.2.24-.2.19 0-.14.3-.593.35-.53.025.025-.038.176-.15.34zm-7.387-.151c.037.076-.013.088-.113.05-.225-.088-.262-.176-.087-.176.075 0 .162.05.2.126zm1.812 0c0 .063-.025.126-.05.126-.037 0-.1-.063-.137-.126-.038-.076-.013-.126.05-.126.075 0 .137.05.137.126zm.962.592c-.037.126-.062.025-.062-.214 0-.24.025-.34.063-.227.024.126.024.328 0 .441zm6.113-.353c0 .139-.075.215-.162.177-.076-.038-.113-.139-.076-.24.088-.252.238-.214.238.063zm-12.225.202c-.075.176-.163.29-.188.265-.062-.063.188-.58.276-.58.037 0-.013.139-.088.315zm3.087-.189c.038.063.013.126-.05.126-.075 0-.137-.063-.137-.126 0-.076.025-.126.05-.126.037 0 .1.05.137.126zm11.726.29c.037.1 0 .176-.088.176s-.163-.075-.163-.176c0-.088.05-.164.1-.164s.113.076.15.164zm.462.088c0 .063-.025.126-.05.126-.038 0-.1-.063-.138-.126-.037-.076-.012-.126.05-.126.075 0 .138.05.138.126zm-10 .378c.063-.1.125-.025.188.24.05.226.05.44.012.478-.037.05-.075-.05-.075-.214 0-.164-.038-.252-.087-.214-.088.088-.4-.277-.4-.479 0-.076.05-.025.124.113.113.177.163.19.238.076zm4.65.277c-.137.265-.137.265-.075-.088.05-.29.038-.328-.063-.189-.075.1-.137.126-.137.05 0-.214.163-.315.3-.176.075.076.063.214-.025.403zm3.225-.479c0 .038-.05.101-.125.139-.063.038-.125.013-.125-.05 0-.076.063-.139.125-.139.075 0 .125.025.125.05zm.688.29c-.038.202-.125.403-.188.466s-.05-.088.025-.34c.163-.542.288-.63.163-.126zm.562-.214c0 .063-.025.126-.05.126-.037 0-.1-.063-.137-.126-.038-.076-.013-.126.05-.126.075 0 .137.05.137.126zm-13.05.277c.05.05.2.038.35-.038.25-.126.25-.126.025.063-.287.24-.45.252-.45.063 0-.163-.512-.012-.663.19-.075.088-.087.062-.05-.076.038-.114.013-.24-.075-.265-.087-.038.063-.05.313-.038.25.013.5.063.55.101zm-2.075.517c-.1.113-.113.088-.05-.101.088-.227.075-.227-.113-.076-.237.19-.287.013-.062-.214.113-.113.175-.113.263.05.075.127.062.253-.038.34zm16.638-.013c-.138.139-.163.126-.088 0 .05-.088.025-.264-.063-.378-.15-.189-.137-.189.075 0 .2.19.213.252.076.378zm-3.575.34c-.313.416-.563.807-.563.882 0 .076-.05.139-.125.139-.188 0-.15-.139.125-.567.137-.214.313-.491.4-.63.188-.277.488-.554.625-.567.05 0-.15.34-.462.743zm1.062-.642c0 .05-.125.164-.275.264-.288.177-.288.177-.05-.1.25-.278.325-.315.325-.164zm-7.288.302c-.037.101-.075.063-.075-.075-.012-.139.026-.215.063-.164.038.038.05.151.012.24zm-4 .252c.026.202-.012.214-.162.101-.225-.189-.225-.34-.012-.34.087 0 .174.113.174.24zm10.976.101c-.2.201-.388.353-.413.315-.063-.063.6-.693.713-.693.037 0-.1.164-.3.378zm-3.976.025c-.037.101-.075.063-.075-.075-.012-.139.026-.215.063-.164.038.038.05.151.012.24zm-7.712.466c.238.202.387.416.337.466-.05.063-.224-.037-.387-.201a3.96 3.96 0 00-.563-.504c-.137-.1-.262-.227-.262-.29 0-.126.337.076.875.53zm13-.302c-.163.176-.35.315-.413.315-.062 0-.212.126-.337.277-.125.164-.262.252-.313.202-.112-.114.138-.366.75-.781.6-.416.688-.416.313-.013zm-15.912.214c-.038.1-.075.063-.075-.075-.013-.14.024-.215.062-.164.038.037.05.15.013.24zm1.162-.151c0 .063-.05.126-.125.126-.063 0-.125-.063-.125-.126 0-.076.063-.126.125-.126.075 0 .125.05.125.126zm2.875.025c0-.088.063-.126.137-.075.1.05.088.113-.024.188-.188.114-.363.038-.363-.176 0-.088.05-.075.125.038.087.139.125.139.125.025zm9.913.328c-.063.29-.313.403-.25.126.024-.152.25-.48.3-.429.012.013 0 .152-.05.303zm3.587-.076c0 .076-.075.063-.188-.025-.1-.088-.187-.177-.187-.202 0-.025.087-.012.188.025.1.05.187.14.187.202zm-13.113.151c.063-.037.113 0 .113.076 0 .189-.288.088-.325-.1-.012-.09 0-.102.037-.026.026.063.113.1.175.05zm3.3-.05c.038.063.013.126-.05.126-.075 0-.137-.063-.137-.126 0-.076.025-.126.05-.126.037 0 .1.05.137.126zm2.8.214c0 .315-.012.315-.1.1-.062-.138-.087-.289-.05-.352.1-.176.163-.088.15.252zm7.638.038c-.075.138-.15.252-.175.252-.025 0-.025-.114.012-.252.038-.139.113-.252.188-.252.063 0 .05.113-.025.252zm-13.5.315c0 .1-.025.189-.05.189s-.075-.088-.125-.19c-.037-.1-.012-.188.05-.188.075 0 .125.088.125.189zm9-.063c0 .063-.025.126-.05.126-.037 0-.1-.063-.137-.126-.038-.076-.013-.126.05-.126.075 0 .137.05.137.126zm-12.8.34c-.075.076-.45-.113-.45-.227 0-.063.113-.05.25.038.125.088.225.177.2.19zm17.775.05c-.038.101-.087.038-.138-.126-.05-.214-.037-.264.063-.163.063.063.1.201.075.29zM16.312 15.8c.038.075-.012.088-.112.05-.225-.088-.262-.176-.087-.176.075 0 .162.05.2.126zm17.9.151c-.037.1-.075.063-.075-.075-.012-.14.026-.215.063-.164.037.037.05.15.012.24zm-17.087-.025c0 .063-.1.126-.212.126-.188 0-.2-.025-.038-.126.238-.151.25-.151.25 0zM33.05 15.9c.038.063-.012.113-.112.113s-.15-.05-.113-.113c.037-.05.087-.101.112-.101.026 0 .076.05.113.1zm-.3.327c0 .026-.1.126-.212.215-.2.163-.213.15-.05-.05.162-.203.262-.265.262-.165zm-17.875.832c-.075.466-.1.504-.113.164-.012-.366.1-.857.175-.769.013.025-.012.29-.062.605zM18 16.605c0 .026-.15.151-.337.265l-.35.227.237-.265c.212-.252.45-.365.45-.227zm14.125.126c0 .038-.05.101-.125.139-.063.038-.125.012-.125-.05 0-.076.063-.14.125-.14.075 0 .125.026.125.051zm2.962.353c-.037.1-.075.063-.075-.075-.012-.14.026-.215.063-.164.037.038.05.15.012.24zm-17.712.53c0 .327-.075.226-.175-.24-.063-.277-.05-.328.05-.19.063.102.125.303.125.43zm14.313-.303a.316.316 0 01-.226.126c-.087 0-.075-.05.038-.126.238-.151.288-.151.188 0zm.862.327c.038.101.025.152-.05.114a.24.24 0 01-.125-.202c0-.176.087-.138.175.088zm.288.076c-.038.1-.075.063-.075-.076-.013-.138.025-.214.062-.163.037.037.05.15.012.239zm-16.376 1.764c-.037.1-.075.063-.075-.076-.012-.138.026-.214.063-.163.038.037.05.15.012.239zm17.163-.025c-.1.063-.237.126-.313.126-.062 0-.037-.063.063-.126s.25-.126.313-.126c.075 0 .037.063-.063.126zm-.563.252c-.1.164.076.164.488 0 .175-.063.325-.076.325-.013 0 .126-.737.29-.888.19-.062-.039-.112 0-.112.087 0 .089-.038.114-.075.076-.05-.05-.012-.164.075-.277.175-.214.313-.252.188-.063zm-15.024.92c.037.1.012.252-.05.352-.075.126-.113.088-.113-.176 0-.365.063-.441.163-.176zm13.912.189c0 .125-.1.226-.225.226-.2 0-.2-.025-.013-.226.113-.127.213-.227.213-.227.012 0 .025.1.025.227zm-17.362.49c-.038.127-.063.051-.063-.15 0-.215.025-.303.063-.227a.96.96 0 010 .378zm3.975-.238c-.038.037-.138 0-.226-.089-.112-.126-.1-.138.076-.063.125.038.187.114.15.151zm16.65.176c-.038.1-.075.063-.075-.076-.013-.138.025-.214.062-.163.037.037.05.15.012.239zm.25.252c-.038.088-.063.025-.063-.151 0-.177.025-.24.063-.164a.67.67 0 010 .315zm-4.488.781c.012.177-.063.34-.188.378-.162.063-.174.05-.037-.113.125-.151.125-.19 0-.19s-.125-.037 0-.188c.2-.24.188-.24.225.113zm-11.663-.05c.038.063.013.126-.05.126-.075 0-.137-.063-.137-.126 0-.076.025-.126.05-.126.037 0 .1.05.137.126zm-4.587.44c-.037.038-.112-.024-.15-.15-.075-.177-.063-.19.063-.076.087.088.124.189.087.227zm.162.48c-.125.113-.137.1-.062-.076.038-.126.113-.19.15-.151.037.038 0 .138-.088.227zm15.925-.164c-.337.15-.537.15-.312 0a.859.859 0 01.375-.114c.125 0 .1.038-.063.114zm-.812.68c0 .1-.087.202-.188.252-.15.05-.162.025-.024-.176.174-.303.212-.315.212-.076zm-9.5.479c0 .126-.063.201-.125.164-.075-.05-.1-.139-.063-.202.05-.063.013-.113-.05-.113-.075 0-.137-.05-.137-.126 0-.063.087-.089.188-.05.1.05.187.188.187.327zm-4.563.1c.05.076-.012.278-.124.454-.113.177-.176.403-.138.504.037.101.025.164-.038.126-.062-.038-.137-.189-.175-.34-.037-.139-.037-.227 0-.189.05.038.163-.038.263-.189.1-.139.138-.29.088-.34-.038-.038-.126 0-.188.1-.075.101-.125.127-.125.051 0-.29.3-.403.438-.176zm13.325.794c-.1.101-.175.101-.287-.025-.138-.126-.125-.138.063-.075.162.075.212.025.224-.202.013-.24.026-.252.075-.063.038.126 0 .29-.075.365zm5.2-.264c-.037.1-.075.063-.075-.076-.012-.138.026-.214.063-.164.037.038.05.152.012.24zm-13.587-.025c.163.1.163.126-.025.126-.113 0-.25-.063-.288-.126-.1-.164.063-.164.313 0zm-4.938.882c.038.063.013.126-.05.126-.075 0-.137-.063-.137-.126 0-.076.025-.126.05-.126.037 0 .1.05.137.126zm11.9.78c-.037.102-.075.064-.075-.075-.012-.139.026-.214.063-.164.038.038.05.152.012.24zm-11.087.165c-.163.189-.375.15-.375-.076 0-.076.05-.1.113-.05.062.037.162 0 .2-.076.05-.063.112-.1.15-.063.037.038 0 .151-.088.265zm16.875-.24c0 .038-.087.151-.188.252-.2.214-.224.177-.112-.126.075-.189.3-.29.3-.126zm-11.288.706c-.037.1-.075.063-.075-.076-.012-.139.026-.214.063-.164.038.038.05.152.012.24zm-4.487.554c-.05.038-.15-.063-.225-.227-.15-.277-.15-.277.075-.075.125.126.188.252.15.302zm14.85-.139c-.163.177-.338.316-.388.316-.062 0 .026-.14.188-.316.163-.176.337-.314.388-.314.062 0-.026.138-.188.314zm-15.188.14c.276.314.276.327.038.2a.835.835 0 01-.35-.34c-.1-.264-.037-.239.313.14zm4.825.453c-.024.163-.05.063-.05-.215-.012-.277.013-.403.05-.29a1.7 1.7 0 010 .505zm5.5.063c-.037.126-.062.05-.062-.152 0-.214.025-.302.063-.226a.96.96 0 010 .378zm3.388.214c-.088.1-.188.151-.213.139-.062-.076.125-.316.25-.316.063 0 .05.076-.037.177zm-12.538.075c.038.064.013.127-.062.127s-.1.075-.05.15c.05.089.038.114-.012.064-.15-.126-.188-.466-.063-.466.063 0 .15.05.188.125zm12.888.064c-.1.1-.225.189-.275.189-.038 0-.012-.089.075-.19.087-.1.212-.188.275-.188.063 0 .038.088-.075.189zm-10.637.818a.316.316 0 01-.226.126c-.087 0-.075-.05.038-.126.238-.15.288-.15.188 0zm-.875.252c.037.063.024.126-.05.126-.063 0-.163-.063-.2-.126-.038-.075-.025-.126.05-.126.062 0 .162.05.2.126zm9.675.076c.125.113-.438.038-.613-.076-.137-.1-.087-.113.188-.05.212.05.4.1.425.126zm-1.363.605c0 .025-.113.075-.25.113-.137.038-.225.013-.175-.05.063-.114.425-.164.425-.063z" fill="#10215B"/><path d="M25.663 13.594c0 .34.025.479.05.277a2.653 2.653 0 000-.63c-.025-.152-.05 0-.05.353zm11.1 1.851c0 .089.112.416.237.732.2.479.237.517.237.24.013-.177-.075-.505-.187-.72-.2-.428-.3-.504-.287-.252zm-14.338 1.438c.213.214.325.478.325.73.013.441.3.933.438.718.037-.075-.013-.239-.125-.352-.138-.139-.188-.353-.163-.63.038-.29 0-.416-.112-.416-.1 0-.2-.088-.238-.189-.05-.1-.162-.189-.262-.189-.138 0-.1.1.137.328zm4.988-.089c-.25.214-.388.517-.226.517.063 0 .688-.63.688-.694 0-.126-.2-.05-.462.177zm9.912.567c.087.731.162.958.313.958.125 0 .037-.454-.225-1.134l-.163-.441.075.617zm-17.425.063c-.137.088-.125.126.037.19.288.113.313.1.313-.114 0-.215-.113-.24-.35-.076zm1.663.012c.037.064.1.127.137.127.025 0 .05-.063.05-.127 0-.076-.063-.127-.137-.127-.063 0-.088.05-.05.127zm6.687 0c0 .064.063.127.125.127a.126.126 0 00.125-.127c0-.076-.05-.127-.125-.127a.126.126 0 00-.125.127zm1.563.013c-.125.177-.013.265.237.164.113-.038.163-.126.125-.19-.087-.15-.262-.138-.362.026zm-2.838.605c-.125.126-.175.277-.112.366.062.113.137.063.25-.177.175-.403.137-.466-.138-.189zm13.15 1.966v1.827h-1.3c-1.475 0-1.338-.1-1.563 1.159-.062.39-.212.92-.312 1.172-.113.264-.2.567-.2.68 0 .315.5-.58.5-.907.013-.151.112-.643.237-1.096l.225-.82h2.538v-1.927c0-1.046-.025-1.915-.063-1.915-.037 0-.062.819-.062 1.827zM19.5 18.508c.088.1.2.151.263.113.162-.1.012-.303-.225-.303-.163 0-.163.038-.038.19zm10.762-.076c-.1.063-.112.139-.037.19.063.037.188-.013.275-.114.175-.202.038-.252-.238-.076zm-7.199.516c.037.064.1.127.137.127.025 0 .05-.063.05-.127 0-.076-.063-.127-.137-.127-.063 0-.088.05-.05.127zm3.687.013c0 .064.063.089.125.05.075-.037.125-.1.125-.138 0-.026-.05-.051-.125-.051-.063 0-.125.063-.125.14zM10.863 21.96l1.287.075.3 1.008c.163.555.288 1.084.3 1.172 0 .24.4 1.059.463.983.037-.038-.05-.416-.2-.857a28.592 28.592 0 01-.463-1.65l-.213-.845-1.387.025-1.387.025 1.3.063zm25.662 3.414c-.075.139-.15.265-.15.302 0 .076.987.706 1.125.706.087 0 .225.088.337.19.163.175.163.239-.012.604-.1.227-.3.555-.425.744-.212.315-.25.34-.475.163-.125-.1-.325-.176-.425-.176-.125-.013-.075.076.125.24.55.428.825.277 1.337-.731.375-.757.363-.87-.112-1.097-.875-.403-1.163-.643-1.125-.92.05-.34 0-.353-.2-.025zm-23.275.24c0 .151.063.265.125.265.075 0 .125-.076.125-.177 0-.1-.05-.227-.125-.264-.063-.038-.125.038-.125.176zm-.575.316c-.037.1-.287.276-.562.377-.588.24-.613.454-.113 1.197.213.302.375.63.375.706 0 .365.425.302 1.175-.19l.763-.503.437.529c.238.29.563.655.725.819.15.164.275.34.275.39 0 .05.263.278.575.517.6.466.625.63.163 1.298-.138.176-.238.378-.238.44 0 .051-.112.24-.25.416-.35.454-.312.706.163.895.212.088.425.19.462.227.038.038.175.139.313.227 1.85 1.108 1.987 1.171 2.087 1.02.063-.088.313-.529.563-.983.6-1.045.662-1.12.975-1.008.137.063.525.177.85.265.562.139.6.176.537.479-.037.176-.1.605-.137.957-.063.605-.05.605.187-.252.138-.49.238-1.058.238-1.26-.013-.214-.038-.277-.075-.163-.063.252-.488.201-1.438-.164-.575-.227-.587-.227-.662.013-.05.138-.138.252-.2.252-.063 0-.113.113-.113.252 0 .138-.05.252-.1.252s-.225.264-.375.58c-.25.516-.312.566-.6.503a3.396 3.396 0 01-.662-.302c-.375-.265-.613-.404-1.413-.857-.337-.19-.6-.403-.587-.479 0-.076.112-.315.237-.517.125-.214.4-.667.6-1.02l.363-.643-.388-.302c-.75-.605-1.975-1.928-2.112-2.306-.088-.226-.65-.277-.775-.075-.138.214-1.075.655-1.263.58-.087-.039-.287-.303-.437-.606-.15-.302-.325-.58-.4-.617-.063-.05-.025-.139.112-.214.138-.076.438-.24.663-.378.237-.126.462-.302.487-.378.063-.214-.35-.19-.425.025zm22.575 1.612c0 .164-.038.201-1.425 1.638-1.013 1.033-1.063 1.121-.925 1.424.075.176.187.315.25.315.05 0 .1.088.1.189 0 .1.137.39.312.642.175.265.3.554.288.655-.025.101-.313.34-.663.53-.337.201-.775.44-.962.554-1.1.643-1.475.68-1.475.189 0-.126-.05-.24-.113-.24-.062 0-.175-.163-.262-.365-.075-.202-.275-.542-.425-.756l-.275-.378-.538.252c-.75.328-1.225.315-1.312-.05-.038-.151-.038.038-.013.416.038.377.138.944.238 1.26.162.516.175.529.187.188a2.54 2.54 0 00-.112-.793c-.113-.404-.088-.429.287-.593.225-.088.538-.188.713-.214.175-.012.35-.088.387-.138.088-.126.75.882 1.163 1.764.2.44.45.529.7.227.087-.101.3-.265.487-.353.175-.101.538-.29.8-.441.25-.151.675-.39.938-.542.637-.353.712-.454.562-.643-.075-.088-.25-.378-.4-.642-.15-.252-.375-.668-.512-.907l-.25-.454.75-.718c.425-.39 1-1.008 1.275-1.373.5-.63.525-.643.812-.454.363.24.55.113.213-.151-.288-.214-.8-.252-.8-.038zm-12.375 1.675c.087.101.212.19.275.19.075 0 .063-.089-.025-.19-.087-.101-.212-.19-.275-.19-.075 0-.063.089.025.19zm4.038 0c-.276.202-1.563.416-2.138.378-.188-.012-.587-.063-.9-.1l-.563-.076.5.176c1 .34 3.175.089 3.363-.403.087-.202.063-.202-.262.025zm-3.663 1.412c.65.315 2.487.378 3.2.1.8-.302.6-.365-.325-.1-.763.214-1.5.176-3-.151-.225-.05-.2-.013.125.15zm5.025 4.069c0 .177.025.24.062.151a.673.673 0 000-.315c-.037-.076-.062-.013-.062.164zm-6.512.441c-.013.642 1.1 2.243 1.675 2.382.175.05.3.126.262.176-.075.126.263.177 1.3.19.6.012.963-.051 1.388-.266.55-.252 1.362-.983 1.35-1.197 0-.05.112-.24.262-.428.138-.177.25-.467.25-.656 0-.264-.05-.214-.3.303-.15.34-.375.706-.487.806-.125.089-.213.24-.213.316 0 .15-.6.554-1.187.78-.938.379-2.375.09-3.063-.617-.65-.68-.862-1.033-1.175-1.978-.025-.101-.062-.026-.062.189zM19.7 45.722c.038.101.238.227.45.303.538.189.95.617 1.3 1.336.163.34.3.53.3.39 0-.277-.412-.995-.812-1.373-.375-.378-1.313-.87-1.238-.656zm-1.863.782c-.162.151-.087.29.163.29.137 0 .25-.088.25-.19 0-.189-.262-.265-.413-.1zm1.513.832c-.037.24-.025.315.05.24.075-.077.1-.228.075-.354-.037-.176-.062-.15-.125.114zm2.413 1.222c-.013.567.287 1.008.687 1.008.363 0 .375-.126.05-.504l-.25-.29v.29c0 .454-.262.126-.375-.466l-.1-.479-.012.441zm9.487 4.636c0 .265.575.53 1.325.63.712.088.75.101 1.025.656.313.617.65 1.033.65.78 0-.087-.05-.15-.112-.15-.063 0-.213-.252-.338-.58-.275-.718-.575-.933-1.35-.933-.463 0-.7-.063-.913-.277-.162-.151-.287-.202-.287-.126zm-10.375.276c-.1.064-.125.128-.063.128.075 0 .213-.064.313-.127.1-.064.137-.127.062-.127-.062 0-.212.063-.312.127zm-5 1.375c-.075.151-.088.265-.013.265.125 0 .3-.378.213-.467-.025-.037-.113.063-.2.202zm-.475.642c-.238.379-.175.454.1.127.275-.316.3-.379.15-.379-.05 0-.163.114-.25.252z" fill="#10215B"/><path stroke="#10215B" d="M0 40.626h50M0 1.424h50"/><path stroke="#10215B" stroke-width=".2" d="M37.5 18.2h2.7m-30.7 0h2.7m-2.7 3.672h2.7m-2.8.1V18.1"/><path stroke="#10215B" d="M.5 4.478v51.485m49-51.485v51.485"/></svg>